ETBookOT-Bold.ufo
<glyph name="dollar" format="1">
  <advance width="479"/>
  <unicode hex="0024"/>
  <outline>
    <contour>
      <point x="208" y="600" type="curve"/>
      <point x="220" y="601"/>
      <point x="235" y="601"/>
      <point x="248" y="600" type="curve" smooth="yes"/>
      <point x="249" y="600"/>
      <point x="251" y="609"/>
      <point x="251" y="610" type="curve" smooth="yes"/>
      <point x="251" y="640" type="line" smooth="yes"/>
      <point x="253" y="650"/>
      <point x="265" y="655"/>
      <point x="272" y="657" type="curve" smooth="yes"/>
      <point x="285" y="657" type="line" smooth="yes"/>
      <point x="312" y="657"/>
      <point x="303" y="610"/>
      <point x="303" y="599" type="curve" smooth="yes"/>
      <point x="303" y="593"/>
      <point x="306" y="588"/>
      <point x="310" y="587" type="curve" smooth="yes"/>
      <point x="368" y="568"/>
      <point x="415" y="534"/>
      <point x="415" y="492" type="curve" smooth="yes"/>
      <point x="415" y="467"/>
      <point x="396" y="446"/>
      <point x="370" y="446" type="curve" smooth="yes"/>
      <point x="335" y="446"/>
      <point x="322" y="477"/>
      <point x="305" y="501" type="curve" smooth="yes"/>
      <point x="304" y="502"/>
      <point x="303" y="506"/>
      <point x="303" y="503" type="curve" smooth="yes"/>
      <point x="303" y="342" type="line" smooth="yes"/>
      <point x="303" y="339"/>
      <point x="303" y="331"/>
      <point x="305" y="329" type="curve" smooth="yes"/>
      <point x="368" y="290"/>
      <point x="439" y="241"/>
      <point x="439" y="152" type="curve" smooth="yes"/>
      <point x="439" y="76"/>
      <point x="386" y="15"/>
      <point x="305" y="-11" type="curve" smooth="yes"/>
      <point x="301" y="-12"/>
      <point x="303" y="-16"/>
      <point x="303" y="-19" type="curve" smooth="yes"/>
      <point x="303" y="-45"/>
      <point x="303" y="-61"/>
      <point x="304" y="-88" type="curve" smooth="yes"/>
      <point x="304" y="-105"/>
      <point x="290" y="-107"/>
      <point x="283" y="-107" type="curve" smooth="yes"/>
      <point x="267" y="-107" type="line" smooth="yes"/>
      <point x="256" y="-105"/>
      <point x="249" y="-94"/>
      <point x="250" y="-84" type="curve" smooth="yes"/>
      <point x="251" y="-27" type="line" smooth="yes"/>
      <point x="251" y="-24"/>
      <point x="248" y="-20"/>
      <point x="244" y="-21" type="curve" smooth="yes"/>
      <point x="233" y="-22"/>
      <point x="224" y="-21"/>
      <point x="214" y="-20" type="curve" smooth="yes"/>
      <point x="211" y="-19"/>
      <point x="208" y="-21"/>
      <point x="208" y="-30" type="curve" smooth="yes"/>
      <point x="208" y="-48"/>
      <point x="207" y="-66"/>
      <point x="210" y="-84" type="curve" smooth="yes"/>
      <point x="211" y="-94"/>
      <point x="209" y="-102"/>
      <point x="196" y="-107" type="curve"/>
      <point x="168" y="-107" type="line"/>
      <point x="154" y="-102"/>
      <point x="155" y="-90"/>
      <point x="156" y="-85" type="curve" smooth="yes"/>
      <point x="156" y="-72" type="line"/>
      <point x="156" y="-16" type="line" smooth="yes"/>
      <point x="156" y="-11"/>
      <point x="153" y="-8"/>
      <point x="149" y="-7" type="curve" smooth="yes"/>
      <point x="120" y="3"/>
      <point x="86" y="16"/>
      <point x="63" y="40" type="curve" smooth="yes"/>
      <point x="43" y="61"/>
      <point x="31" y="87"/>
      <point x="31" y="109" type="curve" smooth="yes"/>
      <point x="31" y="134"/>
      <point x="53" y="158"/>
      <point x="79" y="158" type="curve" smooth="yes"/>
      <point x="124" y="158"/>
      <point x="128" y="106"/>
      <point x="143" y="76" type="curve" smooth="yes"/>
      <point x="145" y="71"/>
      <point x="149" y="66"/>
      <point x="155" y="60" type="curve"/>
      <point x="155" y="62"/>
      <point x="156" y="64"/>
      <point x="156" y="65" type="curve" smooth="yes"/>
      <point x="156" y="294" type="line" smooth="yes"/>
      <point x="155" y="296"/>
      <point x="154" y="297"/>
      <point x="153" y="298" type="curve" smooth="yes"/>
      <point x="99" y="339"/>
      <point x="48" y="373"/>
      <point x="48" y="450" type="curve" smooth="yes"/>
      <point x="48" y="512"/>
      <point x="89" y="563"/>
      <point x="151" y="587" type="curve" smooth="yes"/>
      <point x="154" y="588"/>
      <point x="156" y="592"/>
      <point x="156" y="598" type="curve" smooth="yes"/>
      <point x="156" y="643" type="line"/>
      <point x="161" y="658"/>
      <point x="173" y="657"/>
      <point x="186" y="658" type="curve" smooth="yes"/>
      <point x="195" y="656"/>
      <point x="203" y="650"/>
      <point x="207" y="641" type="curve"/>
      <point x="207" y="609" type="line" smooth="yes"/>
      <point x="208" y="608"/>
      <point x="208" y="600"/>
    </contour>
    <contour>
      <point x="249" y="364" type="curve"/>
      <point x="250" y="366"/>
      <point x="251" y="368"/>
      <point x="251" y="370" type="curve" smooth="yes"/>
      <point x="251" y="533" type="line" smooth="yes"/>
      <point x="251" y="539"/>
      <point x="252" y="544"/>
      <point x="249" y="545" type="curve" smooth="yes"/>
      <point x="236" y="548"/>
      <point x="221" y="551"/>
      <point x="207" y="548" type="curve" smooth="yes"/>
      <point x="206" y="548"/>
      <point x="207" y="547"/>
      <point x="207" y="545" type="curve" smooth="yes"/>
      <point x="207" y="403" type="line" smooth="yes"/>
      <point x="207" y="398"/>
      <point x="207" y="395"/>
      <point x="210" y="392" type="curve" smooth="yes"/>
      <point x="212" y="389" type="line"/>
      <point x="224" y="379"/>
      <point x="237" y="372"/>
    </contour>
    <contour>
      <point x="155" y="530" type="curve"/>
      <point x="140" y="518"/>
      <point x="132" y="501"/>
      <point x="132" y="484" type="curve" smooth="yes"/>
      <point x="132" y="464"/>
      <point x="138" y="451"/>
      <point x="151" y="437" type="curve" smooth="yes"/>
      <point x="155" y="432"/>
      <point x="155" y="435"/>
      <point x="155" y="445" type="curve" smooth="yes"/>
      <point x="156" y="518" type="line" smooth="yes"/>
      <point x="156" y="528"/>
      <point x="155" y="530"/>
    </contour>
    <contour>
      <point x="309" y="54" type="curve" smooth="yes"/>
      <point x="337" y="73"/>
      <point x="347" y="96"/>
      <point x="347" y="130" type="curve" smooth="yes"/>
      <point x="347" y="163"/>
      <point x="329" y="183"/>
      <point x="304" y="201" type="curve" smooth="yes"/>
      <point x="300" y="203"/>
      <point x="303" y="198"/>
      <point x="303" y="195" type="curve" smooth="yes"/>
      <point x="303" y="64" type="line" smooth="yes"/>
      <point x="303" y="53"/>
      <point x="304" y="51"/>
    </contour>
    <contour>
      <point x="213" y="261" type="curve" smooth="yes"/>
      <point x="213" y="262"/>
      <point x="207" y="263"/>
      <point x="207" y="254" type="curve" smooth="yes"/>
      <point x="208" y="41" type="line" smooth="yes"/>
      <point x="208" y="33"/>
      <point x="209" y="32"/>
      <point x="212" y="32" type="curve" smooth="yes"/>
      <point x="215" y="31"/>
      <point x="250" y="27"/>
      <point x="251" y="32" type="curve" smooth="yes"/>
      <point x="251" y="34"/>
      <point x="251" y="37"/>
      <point x="251" y="40" type="curve" smooth="yes"/>
      <point x="251" y="229" type="line" smooth="yes"/>
      <point x="251" y="232"/>
      <point x="250" y="238"/>
      <point x="248" y="238" type="curve" smooth="yes"/>
      <point x="235" y="247"/>
      <point x="226" y="252"/>
    </contour>
  </outline>
</glyph>
<glyph name="quotesingle" format="1">
  <advance width="185"/>
  <unicode hex="0027"/>
  <outline>
    <contour>
      <point x="147" y="560" type="curve" smooth="yes"/>
      <point x="137" y="504"/>
      <point x="130" y="447"/>
      <point x="120" y="391" type="curve" smooth="yes"/>
      <point x="119" y="381"/>
      <point x="112" y="361"/>
      <point x="91" y="363" type="curve" smooth="yes"/>
      <point x="68" y="365"/>
      <point x="71" y="372"/>
      <point x="68" y="389" type="curve" smooth="yes"/>
      <point x="46" y="519" type="line" smooth="yes"/>
      <point x="42" y="545"/>
      <point x="35" y="570"/>
      <point x="35" y="596" type="curve" smooth="yes"/>
      <point x="35" y="643"/>
      <point x="50" y="674"/>
      <point x="92" y="674" type="curve" smooth="yes"/>
      <point x="131" y="674"/>
      <point x="152" y="646"/>
      <point x="152" y="605" type="curve" smooth="yes"/>
      <point x="152" y="591"/>
      <point x="150" y="576"/>
    </contour>
  </outline>
</glyph>
<glyph name="parenleft" format="1">
  <advance width="326"/>
  <unicode hex="0028"/>
  <outline>
    <contour>
      <point x="283" y="-223" type="curve" smooth="yes"/>
      <point x="268" y="-230"/>
      <point x="257" y="-219"/>
      <point x="251" y="-213" type="curve" smooth="yes"/>
      <point x="145" y="-92"/>
      <point x="70" y="76"/>
      <point x="70" y="240" type="curve" smooth="yes"/>
      <point x="70" y="410"/>
      <point x="149" y="578"/>
      <point x="261" y="702" type="curve"/>
      <point x="292" y="727"/>
      <point x="326" y="682"/>
      <point x="310" y="656" type="curve"/>
      <point x="270" y="610"/>
      <point x="224" y="528"/>
      <point x="198" y="457" type="curve" smooth="yes"/>
      <point x="173" y="389"/>
      <point x="162" y="326"/>
      <point x="162" y="240" type="curve" smooth="yes"/>
      <point x="162" y="114"/>
      <point x="186" y="26"/>
      <point x="249" y="-87" type="curve" smooth="yes"/>
      <point x="274" y="-133"/>
      <point x="282" y="-144"/>
      <point x="311" y="-178" type="curve"/>
      <point x="320" y="-199"/>
      <point x="300" y="-215"/>
    </contour>
  </outline>
</glyph>
<glyph name="parenright" format="1">
  <advance width="316"/>
  <unicode hex="0029"/>
  <outline>
    <contour>
      <point x="58" y="-221" type="curve"/>
      <point x="33" y="-241"/>
      <point x="-15" y="-214"/>
      <point x="9" y="-175" type="curve"/>
      <point x="50" y="-128"/>
      <point x="96" y="-47"/>
      <point x="122" y="24" type="curve" smooth="yes"/>
      <point x="147" y="92"/>
      <point x="158" y="155"/>
      <point x="158" y="242" type="curve" smooth="yes"/>
      <point x="158" y="367"/>
      <point x="133" y="455"/>
      <point x="70" y="569" type="curve" smooth="yes"/>
      <point x="47" y="611"/>
      <point x="39" y="625"/>
      <point x="16" y="651" type="curve" smooth="yes"/>
      <point x="5" y="663"/>
      <point x="5" y="685"/>
      <point x="20" y="698" type="curve" smooth="yes"/>
      <point x="36" y="711"/>
      <point x="56" y="708"/>
      <point x="67" y="696" type="curve" smooth="yes"/>
      <point x="176" y="573"/>
      <point x="248" y="408"/>
      <point x="248" y="242" type="curve" smooth="yes"/>
      <point x="248" y="72"/>
      <point x="173" y="-98"/>
    </contour>
  </outline>
</glyph>
<glyph name="comma" format="1">
  <advance width="251"/>
  <unicode hex="002C"/>
  <outline>
    <contour>
      <point x="105" y="-126" type="curve" smooth="yes"/>
      <point x="96" y="-130"/>
      <point x="80" y="-137"/>
      <point x="73" y="-128" type="curve" smooth="yes"/>
      <point x="71" y="-125"/>
      <point x="68" y="-123"/>
      <point x="66" y="-121" type="curve" smooth="yes"/>
      <point x="63" y="-112"/>
      <point x="71" y="-99"/>
      <point x="76" y="-97" type="curve" smooth="yes"/>
      <point x="112" y="-76"/>
      <point x="129" y="-53"/>
      <point x="131" y="-33" type="curve" smooth="yes"/>
      <point x="132" y="-31"/>
      <point x="131" y="-26"/>
      <point x="129" y="-26" type="curve" smooth="yes"/>
      <point x="94" y="-34"/>
      <point x="65" y="-9"/>
      <point x="65" y="26" type="curve" smooth="yes"/>
      <point x="65" y="59"/>
      <point x="93" y="82"/>
      <point x="125" y="82" type="curve" smooth="yes"/>
      <point x="168" y="82"/>
      <point x="192" y="47"/>
      <point x="192" y="1" type="curve" smooth="yes"/>
      <point x="192" y="-54"/>
      <point x="160" y="-101"/>
    </contour>
  </outline>
</glyph>
<glyph name="hyphen" format="1">
  <advance width="435"/>
  <unicode hex="002D"/>
  <outline>
    <contour>
      <point x="398" y="220" type="line" smooth="yes"/>
      <point x="395" y="208"/>
      <point x="388" y="203"/>
      <point x="378" y="202" type="curve" smooth="yes"/>
      <point x="253" y="200"/>
      <point x="199" y="200"/>
      <point x="60" y="202" type="curve" smooth="yes"/>
      <point x="46" y="202"/>
      <point x="42" y="213"/>
      <point x="40" y="218" type="curve" smooth="yes"/>
      <point x="40" y="246" type="line" smooth="yes"/>
      <point x="40" y="262"/>
      <point x="60" y="267"/>
      <point x="69" y="267" type="curve" smooth="yes"/>
      <point x="149" y="267"/>
      <point x="301" y="267"/>
      <point x="376" y="267" type="curve" smooth="yes"/>
      <point x="389" y="267"/>
      <point x="401" y="256"/>
      <point x="400" y="246" type="curve" smooth="yes"/>
    </contour>
  </outline>
</glyph>
<glyph name="period" format="1">
  <advance width="217"/>
  <unicode hex="002E"/>
  <outline>
    <contour>
      <point x="122" y="-12" type="curve" smooth="yes"/>
      <point x="89" y="-12"/>
      <point x="63" y="9"/>
      <point x="63" y="39" type="curve" smooth="yes"/>
      <point x="63" y="71"/>
      <point x="88" y="91"/>
      <point x="122" y="91" type="curve" smooth="yes"/>
      <point x="156" y="91"/>
      <point x="179" y="70"/>
      <point x="179" y="40" type="curve" smooth="yes"/>
      <point x="179" y="11"/>
      <point x="156" y="-12"/>
    </contour>
  </outline>
</glyph>
<glyph name="slash" format="1">
  <advance width="479"/>
  <unicode hex="002F"/>
  <outline>
    <contour>
      <point x="126" y="3" type="line" smooth="yes"/>
      <point x="112" y="-23"/>
      <point x="106" y="-21"/>
      <point x="81" y="-21" type="curve" smooth="yes"/>
      <point x="73" y="-21"/>
      <point x="65" y="-21"/>
      <point x="58" y="-20" type="curve" smooth="yes"/>
      <point x="43" y="-18"/>
      <point x="22" y="-7"/>
      <point x="36" y="19" type="curve" smooth="yes"/>
      <point x="148" y="233"/>
      <point x="254" y="442"/>
      <point x="366" y="656" type="curve" smooth="yes"/>
      <point x="383" y="689"/>
      <point x="413" y="679"/>
      <point x="442" y="675" type="curve" smooth="yes"/>
      <point x="460" y="672"/>
      <point x="466" y="652"/>
      <point x="454" y="633" type="curve" smooth="yes"/>
    </contour>
  </outline>
</glyph>
<glyph name="four" format="1">
  <advance width="489"/>
  <unicode hex="0034"/>
  <outline>
    <contour>
      <point x="435" y="-7" type="curve" smooth="yes"/>
      <point x="357" y="-6" type="line" smooth="yes"/>
      <point x="353" y="-6"/>
      <point x="347" y="-14"/>
      <point x="347" y="-21" type="curve" smooth="yes"/>
      <point x="348" y="-70"/>
      <point x="348" y="-119"/>
      <point x="347" y="-150" type="curve" smooth="yes"/>
      <point x="347" y="-155"/>
      <point x="348" y="-160"/>
      <point x="347" y="-166" type="curve" smooth="yes"/>
      <point x="345" y="-173"/>
      <point x="339" y="-178"/>
      <point x="328" y="-178" type="curve" smooth="yes"/>
      <point x="272" y="-178" type="line" smooth="yes"/>
      <point x="252" y="-178"/>
      <point x="245" y="-174"/>
      <point x="245" y="-159" type="curve" smooth="yes"/>
      <point x="245" y="-134"/>
      <point x="246" y="-60"/>
      <point x="246" y="-17" type="curve" smooth="yes"/>
      <point x="246" y="-15"/>
      <point x="241" y="-6"/>
      <point x="237" y="-6" type="curve" smooth="yes"/>
      <point x="172" y="-6"/>
      <point x="108" y="-6"/>
      <point x="36" y="-6" type="curve"/>
      <point x="18" y="-2"/>
      <point x="20" y="28"/>
      <point x="26" y="36" type="curve" smooth="yes"/>
      <point x="298" y="445" type="line" smooth="yes"/>
      <point x="306" y="456"/>
      <point x="322" y="458"/>
      <point x="335" y="457" type="curve" smooth="yes"/>
      <point x="341" y="454"/>
      <point x="347" y="450"/>
      <point x="347" y="444" type="curve" smooth="yes"/>
      <point x="347" y="79" type="line" smooth="yes"/>
      <point x="348" y="75"/>
      <point x="349" y="74"/>
      <point x="352" y="72" type="curve" smooth="yes"/>
      <point x="439" y="73" type="line" smooth="yes"/>
      <point x="453" y="70"/>
      <point x="457" y="74"/>
      <point x="461" y="55" type="curve" smooth="yes"/>
      <point x="462" y="50"/>
      <point x="462" y="42"/>
      <point x="462" y="35" type="curve" smooth="yes"/>
      <point x="462" y="28"/>
      <point x="462" y="21"/>
      <point x="462" y="16" type="curve" smooth="yes"/>
      <point x="462" y="-3"/>
      <point x="449" y="-9"/>
    </contour>
    <contour>
      <point x="117" y="73" type="line" smooth="yes"/>
      <point x="119" y="72"/>
      <point x="122" y="72"/>
      <point x="122" y="72" type="curve"/>
      <point x="177" y="70"/>
      <point x="197" y="72"/>
      <point x="242" y="72" type="curve" smooth="yes"/>
      <point x="244" y="72"/>
      <point x="247" y="78"/>
      <point x="247" y="83" type="curve" smooth="yes"/>
      <point x="247" y="133"/>
      <point x="248" y="195"/>
      <point x="249" y="259" type="curve" smooth="yes"/>
      <point x="249" y="266"/>
      <point x="248" y="271"/>
      <point x="240" y="260" type="curve" smooth="yes"/>
    </contour>
  </outline>
</glyph>
<glyph name="six" format="1">
  <advance width="503"/>
  <unicode hex="0036"/>
  <outline>
    <contour>
      <point x="255" y="-14" type="curve" smooth="yes"/>
      <point x="132" y="-14"/>
      <point x="40" y="89"/>
      <point x="40" y="223" type="curve" smooth="yes"/>
      <point x="40" y="433"/>
      <point x="239" y="560"/>
      <point x="409" y="614" type="curve" smooth="yes"/>
      <point x="431" y="620"/>
      <point x="471" y="609"/>
      <point x="443" y="572" type="curve"/>
      <point x="346" y="529"/>
      <point x="280" y="487"/>
      <point x="220" y="411" type="curve" smooth="yes"/>
      <point x="212" y="402"/>
      <point x="216" y="400"/>
      <point x="223" y="401" type="curve" smooth="yes"/>
      <point x="234" y="401"/>
      <point x="244" y="402"/>
      <point x="255" y="402" type="curve" smooth="yes"/>
      <point x="373" y="402"/>
      <point x="458" y="319"/>
      <point x="458" y="200" type="curve" smooth="yes"/>
      <point x="458" y="79"/>
      <point x="370" y="-14"/>
    </contour>
    <contour>
      <point x="242" y="356" type="curve" smooth="yes"/>
      <point x="222" y="356"/>
      <point x="209" y="353"/>
      <point x="178" y="339" type="curve"/>
      <point x="153" y="279"/>
      <point x="148" y="251"/>
      <point x="148" y="200" type="curve" smooth="yes"/>
      <point x="148" y="90"/>
      <point x="192" y="35"/>
      <point x="252" y="35" type="curve" smooth="yes"/>
      <point x="275" y="35"/>
      <point x="298" y="43"/>
      <point x="315" y="60" type="curve" smooth="yes"/>
      <point x="339" y="84"/>
      <point x="352" y="123"/>
      <point x="352" y="185" type="curve" smooth="yes"/>
      <point x="352" y="299"/>
      <point x="309" y="356"/>
    </contour>
  </outline>
</glyph>
<glyph name="seven" format="1">
  <advance width="489"/>
  <unicode hex="0037"/>
  <outline>
    <contour>
      <point x="206" y="-159" type="curve" smooth="yes"/>
      <point x="201" y="-169"/>
      <point x="194" y="-181"/>
      <point x="182" y="-179" type="curve" smooth="yes"/>
      <point x="143" y="-174" type="line" smooth="yes"/>
      <point x="134" y="-173"/>
      <point x="115" y="-163"/>
      <point x="124" y="-143" type="curve" smooth="yes"/>
      <point x="346" y="348" type="line" smooth="yes"/>
      <point x="347" y="350"/>
      <point x="337" y="351"/>
      <point x="336" y="351" type="curve" smooth="yes"/>
      <point x="261" y="350"/>
      <point x="185" y="350"/>
      <point x="137" y="349" type="curve" smooth="yes"/>
      <point x="129" y="349"/>
      <point x="120" y="349"/>
      <point x="114" y="344" type="curve" smooth="yes"/>
      <point x="108" y="340"/>
      <point x="103" y="330"/>
      <point x="97" y="308" type="curve" smooth="yes"/>
      <point x="84" y="258" type="line" smooth="yes"/>
      <point x="78" y="249"/>
      <point x="34" y="245"/>
      <point x="37" y="271" type="curve" smooth="yes"/>
      <point x="57" y="418" type="line"/>
      <point x="66" y="439"/>
      <point x="89" y="442"/>
      <point x="97" y="442" type="curve" smooth="yes"/>
      <point x="176" y="445"/>
      <point x="333" y="445"/>
      <point x="412" y="442" type="curve" smooth="yes"/>
      <point x="423" y="442"/>
      <point x="437" y="444"/>
      <point x="443" y="431" type="curve"/>
      <point x="443" y="407" type="line"/>
      <point x="353" y="173"/>
      <point x="253" y="-62"/>
    </contour>
  </outline>
</glyph>
<glyph name="I" format="1">
  <advance width="363"/>
  <unicode hex="0049"/>
  <outline>
    <contour>
      <point x="319" y="608" type="curve" smooth="yes"/>
      <point x="314" y="600"/>
      <point x="302" y="598"/>
      <point x="294" y="598" type="curve" smooth="yes"/>
      <point x="244" y="597"/>
      <point x="238" y="595"/>
      <point x="238" y="508" type="curve" smooth="yes"/>
      <point x="238" y="106" type="line" smooth="yes"/>
      <point x="238" y="78"/>
      <point x="243" y="67"/>
      <point x="251" y="61" type="curve" smooth="yes"/>
      <point x="263" y="54"/>
      <point x="289" y="55"/>
      <point x="302" y="54" type="curve" smooth="yes"/>
      <point x="312" y="54"/>
      <point x="317" y="52"/>
      <point x="322" y="41" type="curve" smooth="yes"/>
      <point x="329" y="24"/>
      <point x="323" y="-4"/>
      <point x="306" y="-4" type="curve" smooth="yes"/>
      <point x="245" y="-2"/>
      <point x="127" y="-2"/>
      <point x="67" y="-4" type="curve" smooth="yes"/>
      <point x="54" y="-4"/>
      <point x="45" y="8"/>
      <point x="45" y="22" type="curve" smooth="yes"/>
      <point x="45" y="34"/>
      <point x="44" y="49"/>
      <point x="60" y="52" type="curve" smooth="yes"/>
      <point x="64" y="53"/>
      <point x="68" y="53"/>
      <point x="73" y="53" type="curve" smooth="yes"/>
      <point x="115" y="58"/>
      <point x="122" y="66"/>
      <point x="123" y="106" type="curve" smooth="yes"/>
      <point x="124" y="140" type="line"/>
      <point x="124" y="508" type="line"/>
      <point x="123" y="542" type="line" smooth="yes"/>
      <point x="122" y="588"/>
      <point x="119" y="593"/>
      <point x="73" y="598" type="curve" smooth="yes"/>
      <point x="69" y="598"/>
      <point x="63" y="599"/>
      <point x="59" y="601" type="curve" smooth="yes"/>
      <point x="43" y="612"/>
      <point x="47" y="650"/>
      <point x="70" y="651" type="curve" smooth="yes"/>
      <point x="71" y="651"/>
      <point x="73" y="651"/>
      <point x="76" y="651" type="curve" smooth="yes"/>
      <point x="154" y="650"/>
      <point x="179" y="646"/>
      <point x="296" y="651" type="curve" smooth="yes"/>
      <point x="306" y="651"/>
      <point x="320" y="649"/>
      <point x="322" y="631" type="curve" smooth="yes"/>
      <point x="323" y="624"/>
      <point x="322" y="615"/>
    </contour>
  </outline>
</glyph>
<glyph name="L" format="1">
  <advance width="595"/>
  <unicode hex="004C"/>
  <outline>
    <contour>
      <point x="515" y="19" type="curve" smooth="yes"/>
      <point x="507" y="8"/>
      <point x="496" y="-4"/>
      <point x="475" y="-4" type="curve" smooth="yes"/>
      <point x="298" y="-1"/>
      <point x="73" y="-1"/>
      <point x="43" y="-3" type="curve" smooth="yes"/>
      <point x="31" y="-4"/>
      <point x="21" y="4"/>
      <point x="18" y="13" type="curve" smooth="yes"/>
      <point x="14" y="26"/>
      <point x="14" y="54"/>
      <point x="33" y="56" type="curve" smooth="yes"/>
      <point x="39" y="56" type="line" smooth="yes"/>
      <point x="41" y="56"/>
      <point x="44" y="55"/>
      <point x="46" y="56" type="curve" smooth="yes"/>
      <point x="69" y="56"/>
      <point x="109" y="61"/>
      <point x="115" y="88" type="curve" smooth="yes"/>
      <point x="116" y="99"/>
      <point x="117" y="105"/>
      <point x="117" y="144" type="curve" smooth="yes"/>
      <point x="117" y="542" type="line" smooth="yes"/>
      <point x="117" y="587"/>
      <point x="106" y="596"/>
      <point x="52" y="597" type="curve" smooth="yes"/>
      <point x="40" y="597" type="line" smooth="yes"/>
      <point x="20" y="599"/>
      <point x="21" y="632"/>
      <point x="26" y="641" type="curve" smooth="yes"/>
      <point x="33" y="652"/>
      <point x="46" y="652"/>
      <point x="51" y="651" type="curve" smooth="yes"/>
      <point x="149" y="649"/>
      <point x="217" y="650"/>
      <point x="330" y="652" type="curve" smooth="yes"/>
      <point x="337" y="652"/>
      <point x="350" y="651"/>
      <point x="354" y="636" type="curve" smooth="yes"/>
      <point x="358" y="620"/>
      <point x="357" y="597"/>
      <point x="332" y="595" type="curve" smooth="yes"/>
      <point x="322" y="594"/>
      <point x="311" y="593"/>
      <point x="300" y="593" type="curve" smooth="yes"/>
      <point x="240" y="591"/>
      <point x="233" y="587"/>
      <point x="233" y="552" type="curve" smooth="yes"/>
      <point x="233" y="108" type="line" smooth="yes"/>
      <point x="233" y="75"/>
      <point x="252" y="66"/>
      <point x="288" y="66" type="curve" smooth="yes"/>
      <point x="371" y="66" type="line" smooth="yes"/>
      <point x="442" y="66"/>
      <point x="454" y="67"/>
      <point x="500" y="127" type="curve" smooth="yes"/>
      <point x="536" y="174" type="line"/>
      <point x="546" y="178"/>
      <point x="559" y="181"/>
      <point x="568" y="174" type="curve" smooth="yes"/>
      <point x="581" y="167"/>
      <point x="577" y="152"/>
      <point x="576" y="150" type="curve" smooth="yes"/>
      <point x="553" y="95"/>
      <point x="528" y="40"/>
    </contour>
  </outline>
</glyph>
<glyph name="P" format="1">
  <advance width="577"/>
  <unicode hex="0050"/>
  <outline>
    <contour>
      <point x="288" y="261" type="curve" smooth="yes"/>
      <point x="267" y="261"/>
      <point x="259" y="262"/>
      <point x="245" y="264" type="curve" smooth="yes"/>
      <point x="242" y="265"/>
      <point x="241" y="263"/>
      <point x="241" y="254" type="curve" smooth="yes"/>
      <point x="241" y="106" type="line" smooth="yes"/>
      <point x="241" y="68"/>
      <point x="251" y="54"/>
      <point x="287" y="55" type="curve" smooth="yes"/>
      <point x="298" y="55"/>
      <point x="311" y="57"/>
      <point x="324" y="57" type="curve" smooth="yes"/>
      <point x="342" y="56"/>
      <point x="348" y="57"/>
      <point x="356" y="45" type="curve" smooth="yes"/>
      <point x="359" y="40"/>
      <point x="361" y="32"/>
      <point x="360" y="22" type="curve" smooth="yes"/>
      <point x="359" y="9"/>
      <point x="351" y="-7"/>
      <point x="337" y="-5" type="curve" smooth="yes"/>
      <point x="260" y="-2"/>
      <point x="135" y="-2"/>
      <point x="66" y="-4" type="curve" smooth="yes"/>
      <point x="55" y="-4"/>
      <point x="46" y="-3"/>
      <point x="39" y="7" type="curve" smooth="yes"/>
      <point x="36" y="12"/>
      <point x="34" y="18"/>
      <point x="35" y="25" type="curve" smooth="yes"/>
      <point x="36" y="58"/>
      <point x="40" y="56"/>
      <point x="74" y="56" type="curve" smooth="yes"/>
      <point x="120" y="56"/>
      <point x="122" y="59"/>
      <point x="122" y="86" type="curve" smooth="yes"/>
      <point x="122" y="532" type="line" smooth="yes"/>
      <point x="122" y="595"/>
      <point x="116" y="601"/>
      <point x="87" y="601" type="curve" smooth="yes"/>
      <point x="62" y="600"/>
      <point x="25" y="588"/>
      <point x="20" y="623" type="curve" smooth="yes"/>
      <point x="20" y="634"/>
      <point x="25" y="649"/>
      <point x="37" y="650" type="curve" smooth="yes"/>
      <point x="116" y="659"/>
      <point x="187" y="659"/>
      <point x="263" y="659" type="curve" smooth="yes"/>
      <point x="332" y="659"/>
      <point x="357" y="656"/>
      <point x="396" y="646" type="curve" smooth="yes"/>
      <point x="486" y="623"/>
      <point x="544" y="553"/>
      <point x="544" y="468" type="curve" smooth="yes"/>
      <point x="544" y="339"/>
      <point x="445" y="261"/>
    </contour>
    <contour>
      <point x="357" y="592" type="curve" smooth="yes"/>
      <point x="326" y="608"/>
      <point x="287" y="611"/>
      <point x="252" y="607" type="curve" smooth="yes"/>
      <point x="242" y="606"/>
      <point x="241" y="598"/>
      <point x="241" y="592" type="curve" smooth="yes"/>
      <point x="241" y="332" type="line" smooth="yes"/>
      <point x="241" y="326"/>
      <point x="245" y="317"/>
      <point x="252" y="315" type="curve" smooth="yes"/>
      <point x="267" y="312"/>
      <point x="267" y="312"/>
      <point x="282" y="312" type="curve" smooth="yes"/>
      <point x="375" y="312"/>
      <point x="418" y="373"/>
      <point x="418" y="470" type="curve" smooth="yes"/>
      <point x="418" y="530"/>
      <point x="393" y="573"/>
    </contour>
  </outline>
</glyph>
<glyph name="Q" format="1">
  <advance width="822"/>
  <unicode hex="0051"/>
  <outline>
    <contour>
      <point x="808" y="-182" type="curve" smooth="yes"/>
      <point x="802" y="-193"/>
      <point x="791" y="-205"/>
      <point x="781" y="-207" type="curve" smooth="yes"/>
      <point x="762" y="-211"/>
      <point x="748" y="-213"/>
      <point x="729" y="-213" type="curve" smooth="yes"/>
      <point x="634" y="-213"/>
      <point x="555" y="-159"/>
      <point x="488" y="-103" type="curve" smooth="yes"/>
      <point x="452" y="-73"/>
      <point x="435" y="-56"/>
      <point x="420" y="-45" type="curve" smooth="yes"/>
      <point x="407" y="-35"/>
      <point x="396" y="-31"/>
      <point x="373" y="-22" type="curve"/>
      <point x="172" y="-4"/>
      <point x="38" y="132"/>
      <point x="38" y="312" type="curve" smooth="yes"/>
      <point x="38" y="513"/>
      <point x="196" y="667"/>
      <point x="412" y="667" type="curve" smooth="yes"/>
      <point x="625" y="667"/>
      <point x="768" y="526"/>
      <point x="768" y="336" type="curve" smooth="yes"/>
      <point x="768" y="184"/>
      <point x="672" y="55"/>
      <point x="530" y="1" type="curve" smooth="yes"/>
      <point x="528" y="1"/>
      <point x="528" y="0"/>
      <point x="530" y="-1" type="curve" smooth="yes"/>
      <point x="575" y="-22"/>
      <point x="615" y="-54"/>
      <point x="651" y="-84" type="curve" smooth="yes"/>
      <point x="710" y="-134"/>
      <point x="741" y="-149"/>
      <point x="802" y="-151" type="curve" smooth="yes"/>
      <point x="815" y="-155"/>
      <point x="816" y="-169"/>
    </contour>
    <contour>
      <point x="385" y="609" type="curve" smooth="yes"/>
      <point x="255" y="609"/>
      <point x="169" y="500"/>
      <point x="169" y="335" type="curve" smooth="yes"/>
      <point x="169" y="162"/>
      <point x="277" y="32"/>
      <point x="426" y="32" type="curve" smooth="yes"/>
      <point x="566" y="32"/>
      <point x="635" y="179"/>
      <point x="635" y="307" type="curve" smooth="yes"/>
      <point x="635" y="487"/>
      <point x="540" y="609"/>
    </contour>
  </outline>
</glyph>
<glyph name="X" format="1">
  <advance width="785"/>
  <unicode hex="0058"/>
  <outline>
    <contour>
      <point x="752" y="-2" type="curve" smooth="yes"/>
      <point x="700" y="0"/>
      <point x="529" y="-1"/>
      <point x="486" y="-3" type="curve" smooth="yes"/>
      <point x="477" y="-4"/>
      <point x="469" y="-2"/>
      <point x="464" y="7" type="curve" smooth="yes"/>
      <point x="457" y="21"/>
      <point x="462" y="49"/>
      <point x="476" y="49" type="curve" smooth="yes"/>
      <point x="489" y="49" type="line" smooth="yes"/>
      <point x="501" y="49"/>
      <point x="523" y="50"/>
      <point x="523" y="58" type="curve" smooth="yes"/>
      <point x="522" y="73"/>
      <point x="505" y="94"/>
      <point x="496" y="106" type="curve" smooth="yes"/>
      <point x="384" y="256" type="line" smooth="yes"/>
      <point x="373" y="271"/>
      <point x="373" y="268"/>
      <point x="362" y="254" type="curve" smooth="yes"/>
      <point x="235" y="97" type="line" smooth="yes"/>
      <point x="219" y="77"/>
      <point x="215" y="66"/>
      <point x="215" y="63" type="curve" smooth="yes"/>
      <point x="215" y="59"/>
      <point x="216" y="57"/>
      <point x="220" y="55" type="curve" smooth="yes"/>
      <point x="225" y="52"/>
      <point x="237" y="49"/>
      <point x="263" y="49" type="curve" smooth="yes"/>
      <point x="272" y="49" type="line" smooth="yes"/>
      <point x="300" y="49"/>
      <point x="302" y="-3"/>
      <point x="274" y="-3" type="curve" smooth="yes"/>
      <point x="222" y="-2"/>
      <point x="111" y="1"/>
      <point x="42" y="-2" type="curve" smooth="yes"/>
      <point x="28" y="-3"/>
      <point x="22" y="15"/>
      <point x="22" y="25" type="curve" smooth="yes"/>
      <point x="22" y="34"/>
      <point x="28" y="50"/>
      <point x="42" y="51" type="curve" smooth="yes"/>
      <point x="91" y="55"/>
      <point x="117" y="62"/>
      <point x="145" y="99" type="curve" smooth="yes"/>
      <point x="205" y="176"/>
      <point x="261" y="244"/>
      <point x="322" y="320" type="curve" smooth="yes"/>
      <point x="331" y="329"/>
      <point x="322" y="333"/>
      <point x="320" y="338" type="curve" smooth="yes"/>
      <point x="183" y="511" type="line" smooth="yes"/>
      <point x="168" y="531"/>
      <point x="142" y="567"/>
      <point x="120" y="579" type="curve" smooth="yes"/>
      <point x="104" y="589"/>
      <point x="86" y="591"/>
      <point x="47" y="592" type="curve" smooth="yes"/>
      <point x="41" y="592"/>
      <point x="25" y="599"/>
      <point x="22" y="610" type="curve" smooth="yes"/>
      <point x="21" y="615"/>
      <point x="18" y="629"/>
      <point x="22" y="638" type="curve" smooth="yes"/>
      <point x="26" y="647"/>
      <point x="36" y="652"/>
      <point x="50" y="651" type="curve" smooth="yes"/>
      <point x="117" y="648"/>
      <point x="251" y="648"/>
      <point x="326" y="652" type="curve" smooth="yes"/>
      <point x="333" y="652"/>
      <point x="346" y="652"/>
      <point x="352" y="638" type="curve" smooth="yes"/>
      <point x="355" y="633"/>
      <point x="356" y="612"/>
      <point x="347" y="603" type="curve" smooth="yes"/>
      <point x="341" y="601"/>
      <point x="335" y="599"/>
      <point x="327" y="599" type="curve" smooth="yes"/>
      <point x="306" y="598"/>
      <point x="294" y="598"/>
      <point x="285" y="597" type="curve" smooth="yes"/>
      <point x="277" y="596"/>
      <point x="275" y="592"/>
      <point x="280" y="581" type="curve" smooth="yes"/>
      <point x="284" y="571"/>
      <point x="294" y="557"/>
      <point x="302" y="547" type="curve" smooth="yes"/>
      <point x="398" y="421" type="line" smooth="yes"/>
      <point x="401" y="418"/>
      <point x="409" y="427"/>
      <point x="409" y="427" type="curve"/>
      <point x="445" y="474"/>
      <point x="482" y="520"/>
      <point x="516" y="570" type="curve" smooth="yes"/>
      <point x="530" y="590"/>
      <point x="525" y="597"/>
      <point x="502" y="597" type="curve" smooth="yes"/>
      <point x="493" y="597"/>
      <point x="470" y="596"/>
      <point x="463" y="602" type="curve" smooth="yes"/>
      <point x="452" y="612"/>
      <point x="452" y="636"/>
      <point x="462" y="644" type="curve" smooth="yes"/>
      <point x="466" y="648"/>
      <point x="474" y="650"/>
      <point x="480" y="650" type="curve" smooth="yes"/>
      <point x="561" y="650"/>
      <point x="630" y="647"/>
      <point x="711" y="651" type="curve"/>
      <point x="742" y="647"/>
      <point x="738" y="598"/>
      <point x="711" y="599" type="curve" smooth="yes"/>
      <point x="630" y="594"/>
      <point x="591" y="547"/>
      <point x="541" y="483" type="curve" smooth="yes"/>
      <point x="451" y="365" type="line" smooth="yes"/>
      <point x="446" y="359"/>
      <point x="447" y="358"/>
      <point x="451" y="353" type="curve" smooth="yes"/>
      <point x="511" y="286"/>
      <point x="618" y="139"/>
      <point x="622" y="134" type="curve" smooth="yes"/>
      <point x="667" y="75"/>
      <point x="670" y="58"/>
      <point x="755" y="48" type="curve" smooth="yes"/>
      <point x="767" y="47"/>
      <point x="773" y="33"/>
      <point x="773" y="22" type="curve" smooth="yes"/>
      <point x="773" y="14"/>
      <point x="768" y="-3"/>
    </contour>
  </outline>
</glyph>
<glyph name="Z" format="1">
  <advance width="705"/>
  <unicode hex="005A"/>
  <outline>
    <contour>
      <point x="628" y="18" type="curve" smooth="yes"/>
      <point x="625" y="5"/>
      <point x="597" y="-2"/>
      <point x="588" y="-2" type="curve" smooth="yes"/>
      <point x="518" y="-2"/>
      <point x="388" y="-3"/>
      <point x="276" y="-3" type="curve" smooth="yes"/>
      <point x="167" y="-3"/>
      <point x="73" y="-2"/>
      <point x="61" y="-2" type="curve" smooth="yes"/>
      <point x="50" y="-2"/>
      <point x="28" y="3"/>
      <point x="31" y="26" type="curve" smooth="yes"/>
      <point x="32" y="32"/>
      <point x="35" y="41"/>
      <point x="38" y="45" type="curve" smooth="yes"/>
      <point x="446" y="574" type="line" smooth="yes"/>
      <point x="448" y="577"/>
      <point x="449" y="583"/>
      <point x="448" y="583" type="curve" smooth="yes"/>
      <point x="246" y="583" type="line" smooth="yes"/>
      <point x="153" y="583"/>
      <point x="144" y="579"/>
      <point x="133" y="488" type="curve"/>
      <point x="132" y="483" type="line" smooth="yes"/>
      <point x="131" y="474"/>
      <point x="81" y="470"/>
      <point x="81" y="492" type="curve" smooth="yes"/>
      <point x="81" y="530"/>
      <point x="82" y="598"/>
      <point x="86" y="632" type="curve" smooth="yes"/>
      <point x="89" y="643"/>
      <point x="106" y="648"/>
      <point x="117" y="650" type="curve" smooth="yes"/>
      <point x="585" y="650" type="line" smooth="yes"/>
      <point x="594" y="650"/>
      <point x="610" y="651"/>
      <point x="615" y="640" type="curve" smooth="yes"/>
      <point x="618" y="635"/>
      <point x="624" y="619"/>
      <point x="615" y="604" type="curve" smooth="yes"/>
      <point x="201" y="72" type="line" smooth="yes"/>
      <point x="196" y="67"/>
      <point x="224" y="67"/>
      <point x="227" y="67" type="curve" smooth="yes"/>
      <point x="457" y="67" type="line" smooth="yes"/>
      <point x="562" y="67"/>
      <point x="576" y="99"/>
      <point x="586" y="196" type="curve" smooth="yes"/>
      <point x="587" y="205"/>
      <point x="587" y="210"/>
      <point x="601" y="211" type="curve" smooth="yes"/>
      <point x="609" y="212"/>
      <point x="620" y="211"/>
      <point x="625" y="211" type="curve" smooth="yes"/>
      <point x="638" y="211"/>
      <point x="642" y="206"/>
      <point x="642" y="198" type="curve" smooth="yes"/>
      <point x="640" y="149"/>
      <point x="633" y="63"/>
    </contour>
  </outline>
</glyph>
<glyph name="backslash" format="1">
  <advance width="479"/>
  <unicode hex="005C"/>
  <outline>
    <contour>
      <point x="424" y="-14" type="curve" smooth="yes"/>
      <point x="383" y="-19" type="line" smooth="yes"/>
      <point x="364" y="-21"/>
      <point x="358" y="-12"/>
      <point x="351" y="2" type="curve" smooth="yes"/>
      <point x="36" y="645" type="line" smooth="yes"/>
      <point x="26" y="665"/>
      <point x="44" y="674"/>
      <point x="63" y="674" type="curve" smooth="yes"/>
      <point x="94" y="674" type="line" smooth="yes"/>
      <point x="114" y="674"/>
      <point x="119" y="675"/>
      <point x="130" y="654" type="curve" smooth="yes"/>
      <point x="440" y="23" type="line" smooth="yes"/>
      <point x="446" y="10"/>
      <point x="454" y="-11"/>
    </contour>
  </outline>
</glyph>
<glyph name="underscore" format="1">
  <advance width="523"/>
  <unicode hex="005F"/>
  <outline>
    <contour>
      <point x="520" y="-232" type="curve" smooth="yes"/>
      <point x="513" y="-233"/>
      <point x="508" y="-232"/>
      <point x="500" y="-232" type="curve" smooth="yes"/>
      <point x="19" y="-232" type="line" smooth="yes"/>
      <point x="-8" y="-232"/>
      <point x="-4" y="-226"/>
      <point x="-4" y="-211" type="curve" smooth="yes"/>
      <point x="-4" y="-193" type="line" smooth="yes"/>
      <point x="-4" y="-184"/>
      <point x="-5" y="-178"/>
      <point x="15" y="-178" type="curve" smooth="yes"/>
      <point x="140" y="-179"/>
      <point x="388" y="-179"/>
      <point x="511" y="-179" type="curve" smooth="yes"/>
      <point x="525" y="-179"/>
      <point x="529" y="-183"/>
      <point x="529" y="-195" type="curve" smooth="yes"/>
      <point x="529" y="-216" type="line" smooth="yes"/>
      <point x="529" y="-226"/>
      <point x="530" y="-231"/>
    </contour>
  </outline>
</glyph>
<glyph name="f" format="1">
  <advance width="324"/>
  <unicode hex="0066"/>
  <outline>
    <contour>
      <point x="426" y="616" type="curve" smooth="yes"/>
      <point x="408" y="587"/>
      <point x="386" y="602"/>
      <point x="371" y="614" type="curve" smooth="yes"/>
      <point x="346" y="635"/>
      <point x="310" y="650"/>
      <point x="284" y="650" type="curve" smooth="yes"/>
      <point x="249" y="650"/>
      <point x="219" y="628"/>
      <point x="206" y="593" type="curve" smooth="yes"/>
      <point x="197" y="568"/>
      <point x="192" y="544"/>
      <point x="193" y="500" type="curve" smooth="yes"/>
      <point x="194" y="437" type="line" smooth="yes"/>
      <point x="194" y="426"/>
      <point x="197" y="424"/>
      <point x="200" y="424" type="curve" smooth="yes"/>
      <point x="268" y="424" type="line" smooth="yes"/>
      <point x="277" y="424"/>
      <point x="288" y="423"/>
      <point x="291" y="414" type="curve" smooth="yes"/>
      <point x="292" y="413"/>
      <point x="292" y="412"/>
      <point x="293" y="410" type="curve" smooth="yes"/>
      <point x="298" y="390"/>
      <point x="300" y="361"/>
      <point x="300" y="361" type="curve" smooth="yes"/>
      <point x="298" y="347"/>
      <point x="293" y="343"/>
      <point x="277" y="343" type="curve" smooth="yes"/>
      <point x="196" y="344" type="line" smooth="yes"/>
      <point x="194" y="344"/>
      <point x="194" y="338"/>
      <point x="194" y="332" type="curve" smooth="yes"/>
      <point x="194" y="135" type="line" smooth="yes"/>
      <point x="194" y="86"/>
      <point x="196" y="72"/>
      <point x="202" y="64" type="curve" smooth="yes"/>
      <point x="214" y="48"/>
      <point x="264" y="55"/>
      <point x="283" y="53" type="curve" smooth="yes"/>
      <point x="301" y="52"/>
      <point x="304" y="37"/>
      <point x="305" y="23" type="curve" smooth="yes"/>
      <point x="305" y="12"/>
      <point x="297" y="-3"/>
      <point x="286" y="-3" type="curve" smooth="yes"/>
      <point x="224" y="-1"/>
      <point x="101" y="0"/>
      <point x="41" y="-3" type="curve" smooth="yes"/>
      <point x="27" y="-4"/>
      <point x="22" y="13"/>
      <point x="22" y="23" type="curve" smooth="yes"/>
      <point x="22" y="26"/>
      <point x="23" y="33"/>
      <point x="25" y="38" type="curve" smooth="yes"/>
      <point x="31" y="50"/>
      <point x="41" y="51"/>
      <point x="52" y="51" type="curve" smooth="yes"/>
      <point x="89" y="51"/>
      <point x="93" y="58"/>
      <point x="93" y="138" type="curve" smooth="yes"/>
      <point x="93" y="330" type="line"/>
      <point x="93" y="337" type="line" smooth="yes"/>
      <point x="93" y="339"/>
      <point x="89" y="345"/>
      <point x="87" y="346" type="curve" smooth="yes"/>
      <point x="41" y="346" type="line" smooth="yes"/>
      <point x="32" y="346"/>
      <point x="23" y="347"/>
      <point x="20" y="357" type="curve" smooth="yes"/>
      <point x="17" y="367"/>
      <point x="16" y="388"/>
      <point x="27" y="395" type="curve" smooth="yes"/>
      <point x="34" y="397"/>
      <point x="89" y="410"/>
      <point x="93" y="421" type="curve" smooth="yes"/>
      <point x="94" y="424"/>
      <point x="94" y="428"/>
      <point x="94" y="431" type="curve" smooth="yes"/>
      <point x="94" y="441"/>
      <point x="95" y="449"/>
      <point x="95" y="465" type="curve" smooth="yes"/>
      <point x="99" y="540"/>
      <point x="112" y="586"/>
      <point x="167" y="646" type="curve" smooth="yes"/>
      <point x="217" y="700"/>
      <point x="272" y="727"/>
      <point x="328" y="727" type="curve" smooth="yes"/>
      <point x="360" y="727"/>
      <point x="419" y="713"/>
      <point x="443" y="679" type="curve" smooth="yes"/>
      <point x="446" y="674"/>
      <point x="447" y="668"/>
      <point x="447" y="662" type="curve" smooth="yes"/>
      <point x="447" y="650"/>
      <point x="436" y="631"/>
    </contour>
  </outline>
</glyph>
<glyph name="k" format="1">
  <advance width="518"/>
  <unicode hex="006B"/>
  <outline>
    <contour>
      <point x="174" y="186" type="curve"/>
      <point x="173" y="186" type="line"/>
      <point x="173" y="153"/>
      <point x="173" y="130"/>
      <point x="174" y="97" type="curve" smooth="yes"/>
      <point x="174" y="87"/>
      <point x="173" y="71"/>
      <point x="176" y="62" type="curve" smooth="yes"/>
      <point x="179" y="55"/>
      <point x="184" y="50"/>
      <point x="199" y="50" type="curve" smooth="yes"/>
      <point x="209" y="49"/>
      <point x="215" y="50"/>
      <point x="225" y="50" type="curve" smooth="yes"/>
      <point x="236" y="50"/>
      <point x="240" y="34"/>
      <point x="240" y="23" type="curve" smooth="yes"/>
      <point x="240" y="12"/>
      <point x="236" y="-3"/>
      <point x="224" y="-3" type="curve" smooth="yes"/>
      <point x="176" y="-2"/>
      <point x="80" y="0"/>
      <point x="29" y="-3" type="curve" smooth="yes"/>
      <point x="25" y="-3"/>
      <point x="18" y="-3"/>
      <point x="14" y="5" type="curve" smooth="yes"/>
      <point x="9" y="14"/>
      <point x="8" y="30"/>
      <point x="12" y="40" type="curve" smooth="yes"/>
      <point x="16" y="48"/>
      <point x="22" y="51"/>
      <point x="36" y="51" type="curve" smooth="yes"/>
      <point x="75" y="51"/>
      <point x="76" y="55"/>
      <point x="76" y="138" type="curve" smooth="yes"/>
      <point x="76" y="567" type="line" smooth="yes"/>
      <point x="76" y="582"/>
      <point x="76" y="591"/>
      <point x="75" y="603" type="curve" smooth="yes"/>
      <point x="75" y="624"/>
      <point x="71" y="625"/>
      <point x="49" y="630" type="curve" smooth="yes"/>
      <point x="47" y="630"/>
      <point x="30" y="635"/>
      <point x="25" y="635" type="curve" smooth="yes"/>
      <point x="9" y="639"/>
      <point x="7" y="652"/>
      <point x="9" y="665" type="curve" smooth="yes"/>
      <point x="10" y="673"/>
      <point x="17" y="678"/>
      <point x="22" y="680" type="curve" smooth="yes"/>
      <point x="74" y="698"/>
      <point x="92" y="705"/>
      <point x="138" y="722" type="curve" smooth="yes"/>
      <point x="162" y="730"/>
      <point x="173" y="720"/>
      <point x="173" y="695" type="curve" smooth="yes"/>
      <point x="173" y="302" type="line" smooth="yes"/>
      <point x="173" y="298"/>
      <point x="172" y="283"/>
      <point x="177" y="287" type="curve" smooth="yes"/>
      <point x="280" y="362" type="line" smooth="yes"/>
      <point x="286" y="366"/>
      <point x="292" y="370"/>
      <point x="295" y="373" type="curve" smooth="yes"/>
      <point x="299" y="377"/>
      <point x="297" y="379"/>
      <point x="287" y="380" type="curve" smooth="yes"/>
      <point x="278" y="380"/>
      <point x="274" y="380"/>
      <point x="270" y="380" type="curve" smooth="yes"/>
      <point x="254" y="382"/>
      <point x="245" y="387"/>
      <point x="247" y="407" type="curve" smooth="yes"/>
      <point x="248" y="421"/>
      <point x="253" y="430"/>
      <point x="271" y="430" type="curve" smooth="yes"/>
      <point x="331" y="429"/>
      <point x="407" y="430"/>
      <point x="452" y="431" type="curve" smooth="yes"/>
      <point x="468" y="431"/>
      <point x="473" y="414"/>
      <point x="473" y="405" type="curve" smooth="yes"/>
      <point x="473" y="396"/>
      <point x="466" y="378"/>
      <point x="457" y="378" type="curve" smooth="yes"/>
      <point x="412" y="377"/>
      <point x="383" y="365"/>
      <point x="342" y="335" type="curve" smooth="yes"/>
      <point x="309" y="310"/>
      <point x="279" y="289"/>
      <point x="244" y="265" type="curve" smooth="yes"/>
      <point x="242" y="261"/>
      <point x="241" y="261"/>
      <point x="244" y="258" type="curve" smooth="yes"/>
      <point x="303" y="198"/>
      <point x="360" y="139"/>
      <point x="421" y="79" type="curve" smooth="yes"/>
      <point x="442" y="57"/>
      <point x="452" y="49"/>
      <point x="481" y="49" type="curve" smooth="yes"/>
      <point x="493" y="49" type="line"/>
      <point x="517" y="39"/>
      <point x="508" y="-4"/>
      <point x="490" y="-3" type="curve" smooth="yes"/>
      <point x="436" y="0"/>
      <point x="330" y="-1"/>
      <point x="279" y="-3" type="curve" smooth="yes"/>
      <point x="273" y="-3"/>
      <point x="267" y="-1"/>
      <point x="264" y="5" type="curve" smooth="yes"/>
      <point x="261" y="10"/>
      <point x="260" y="25"/>
      <point x="260" y="30" type="curve" smooth="yes"/>
      <point x="260" y="46"/>
      <point x="268" y="49"/>
      <point x="285" y="49" type="curve" smooth="yes"/>
      <point x="311" y="49"/>
      <point x="310" y="54"/>
      <point x="289" y="75" type="curve" smooth="yes"/>
      <point x="180" y="191" type="line" smooth="yes"/>
      <point x="173" y="198"/>
      <point x="172" y="195"/>
    </contour>
  </outline>
</glyph>
<glyph name="l" format="1">
  <advance width="269"/>
  <unicode hex="006C"/>
  <outline>
    <contour>
      <point x="236" y="-2" type="curve" smooth="yes"/>
      <point x="146" y="-1"/>
      <point x="106" y="0"/>
      <point x="38" y="-2" type="curve" smooth="yes"/>
      <point x="34" y="-2"/>
      <point x="19" y="3"/>
      <point x="17" y="13" type="curve" smooth="yes"/>
      <point x="14" y="24"/>
      <point x="16" y="46"/>
      <point x="29" y="50" type="curve" smooth="yes"/>
      <point x="32" y="51"/>
      <point x="34" y="51"/>
      <point x="36" y="51" type="curve" smooth="yes"/>
      <point x="43" y="51" type="line" smooth="yes"/>
      <point x="86" y="50"/>
      <point x="91" y="57"/>
      <point x="91" y="104" type="curve" smooth="yes"/>
      <point x="91" y="611" type="line" smooth="yes"/>
      <point x="91" y="617"/>
      <point x="90" y="622"/>
      <point x="84" y="623" type="curve" smooth="yes"/>
      <point x="68" y="626"/>
      <point x="52" y="628"/>
      <point x="36" y="632" type="curve" smooth="yes"/>
      <point x="17" y="636"/>
      <point x="15" y="668"/>
      <point x="34" y="675" type="curve" smooth="yes"/>
      <point x="60" y="685"/>
      <point x="110" y="704"/>
      <point x="163" y="720" type="curve" smooth="yes"/>
      <point x="180" y="722"/>
      <point x="189" y="713"/>
      <point x="189" y="689" type="curve" smooth="yes"/>
      <point x="189" y="105" type="line" smooth="yes"/>
      <point x="189" y="55"/>
      <point x="188" y="51"/>
      <point x="227" y="51" type="curve" smooth="yes"/>
      <point x="238" y="51"/>
      <point x="252" y="51"/>
      <point x="255" y="37" type="curve" smooth="yes"/>
      <point x="256" y="32"/>
      <point x="255" y="28"/>
      <point x="255" y="23" type="curve" smooth="yes"/>
      <point x="255" y="11"/>
      <point x="253" y="-2"/>
    </contour>
  </outline>
</glyph>
<glyph name="o" format="1">
  <advance width="502"/>
  <unicode hex="006F"/>
  <outline>
    <contour>
      <point x="254" y="-15" type="curve" smooth="yes"/>
      <point x="122" y="-15"/>
      <point x="20" y="82"/>
      <point x="20" y="208" type="curve" smooth="yes"/>
      <point x="20" y="336"/>
      <point x="121" y="430"/>
      <point x="251" y="430" type="curve" smooth="yes"/>
      <point x="382" y="430"/>
      <point x="486" y="334"/>
      <point x="485" y="207" type="curve" smooth="yes"/>
      <point x="484" y="83"/>
      <point x="383" y="-15"/>
    </contour>
    <contour>
      <point x="237" y="375" type="curve" smooth="yes"/>
      <point x="177" y="375"/>
      <point x="128" y="319"/>
      <point x="128" y="237" type="curve" smooth="yes"/>
      <point x="128" y="122"/>
      <point x="193" y="41"/>
      <point x="266" y="41" type="curve" smooth="yes"/>
      <point x="326" y="41"/>
      <point x="374" y="105"/>
      <point x="374" y="192" type="curve" smooth="yes"/>
      <point x="374" y="300"/>
      <point x="309" y="375"/>
    </contour>
  </outline>
</glyph>
<glyph name="p" format="1">
  <advance width="506"/>
  <unicode hex="0070"/>
  <outline>
    <contour>
      <point x="187" y="369" type="curve" smooth="yes"/>
      <point x="243" y="408"/>
      <point x="278" y="425"/>
      <point x="317" y="425" type="curve" smooth="yes"/>
      <point x="408" y="425"/>
      <point x="482" y="326"/>
      <point x="482" y="221" type="curve" smooth="yes"/>
      <point x="482" y="94"/>
      <point x="376" y="-20"/>
      <point x="254" y="-20" type="curve" smooth="yes"/>
      <point x="231" y="-20"/>
      <point x="213" y="-16"/>
      <point x="189" y="-9" type="curve" smooth="yes"/>
      <point x="185" y="-8"/>
      <point x="181" y="-10"/>
      <point x="181" y="-19" type="curve" smooth="yes"/>
      <point x="181" y="-126" type="line" smooth="yes"/>
      <point x="181" y="-220"/>
      <point x="187" y="-221"/>
      <point x="232" y="-221" type="curve" smooth="yes"/>
      <point x="246" y="-221" type="line" smooth="yes"/>
      <point x="254" y="-221"/>
      <point x="269" y="-225"/>
      <point x="273" y="-236" type="curve" smooth="yes"/>
      <point x="276" y="-244"/>
      <point x="276" y="-261"/>
      <point x="272" y="-269" type="curve" smooth="yes"/>
      <point x="267" y="-278"/>
      <point x="254" y="-279"/>
      <point x="249" y="-279" type="curve" smooth="yes"/>
      <point x="181" y="-276"/>
      <point x="100" y="-278"/>
      <point x="30" y="-278" type="curve" smooth="yes"/>
      <point x="21" y="-278"/>
      <point x="16" y="-278"/>
      <point x="10" y="-269" type="curve" smooth="yes"/>
      <point x="3" y="-259"/>
      <point x="4" y="-242"/>
      <point x="10" y="-232" type="curve" smooth="yes"/>
      <point x="16" y="-223"/>
      <point x="20" y="-224"/>
      <point x="30" y="-224" type="curve" smooth="yes"/>
      <point x="74" y="-224"/>
      <point x="82" y="-220"/>
      <point x="82" y="-126" type="curve" smooth="yes"/>
      <point x="82" y="277" type="line"/>
      <point x="82" y="300" type="line" smooth="yes"/>
      <point x="82" y="318"/>
      <point x="81" y="319"/>
      <point x="65" y="323" type="curve" smooth="yes"/>
      <point x="53" y="326"/>
      <point x="42" y="331"/>
      <point x="31" y="334" type="curve" smooth="yes"/>
      <point x="12" y="338"/>
      <point x="12" y="365"/>
      <point x="22" y="375" type="curve" smooth="yes"/>
      <point x="23" y="377"/>
      <point x="24" y="378"/>
      <point x="26" y="380" type="curve" smooth="yes"/>
      <point x="137" y="447" type="line" smooth="yes"/>
      <point x="152" y="456"/>
      <point x="181" y="461"/>
      <point x="181" y="430" type="curve" smooth="yes"/>
      <point x="181" y="378" type="line" smooth="yes"/>
      <point x="181" y="372"/>
      <point x="182" y="366"/>
    </contour>
    <contour>
      <point x="268" y="346" type="curve" smooth="yes"/>
      <point x="244" y="346"/>
      <point x="216" y="332"/>
      <point x="184" y="307" type="curve" smooth="yes"/>
      <point x="183" y="306"/>
      <point x="181" y="302"/>
      <point x="181" y="297" type="curve" smooth="yes"/>
      <point x="181" y="90" type="line"/>
      <point x="214" y="59"/>
      <point x="250" y="43"/>
      <point x="281" y="43" type="curve" smooth="yes"/>
      <point x="337" y="43"/>
      <point x="381" y="103"/>
      <point x="381" y="188" type="curve" smooth="yes"/>
      <point x="381" y="285"/>
      <point x="330" y="346"/>
    </contour>
  </outline>
</glyph>
<glyph name="bar" format="1">
  <advance width="534"/>
  <unicode hex="007C"/>
  <outline>
    <contour>
      <point x="305" y="10" type="curve" smooth="yes"/>
      <point x="305" y="-9"/>
      <point x="307" y="-22"/>
      <point x="285" y="-22" type="curve" smooth="yes"/>
      <point x="279" y="-21"/>
      <point x="263" y="-21"/>
      <point x="256" y="-22" type="curve" smooth="yes"/>
      <point x="233" y="-22"/>
      <point x="231" y="-4"/>
      <point x="231" y="15" type="curve" smooth="yes"/>
      <point x="231" y="825" type="line" smooth="yes"/>
      <point x="231" y="847"/>
      <point x="232" y="860"/>
      <point x="256" y="860" type="curve" smooth="yes"/>
      <point x="264" y="858"/>
      <point x="276" y="856"/>
      <point x="284" y="858" type="curve" smooth="yes"/>
      <point x="312" y="858"/>
      <point x="306" y="848"/>
      <point x="306" y="830" type="curve" smooth="yes"/>
      <point x="306" y="422" type="line" smooth="yes"/>
      <point x="306" y="305"/>
      <point x="308" y="146"/>
    </contour>
  </outline>
</glyph>
<glyph name="braceright" format="1">
  <advance width="501"/>
  <unicode hex="007D"/>
  <outline>
    <contour>
      <point x="384" y="204" type="curve" smooth="yes"/>
      <point x="324" y="191"/>
      <point x="294" y="155"/>
      <point x="294" y="117" type="curve" smooth="yes"/>
      <point x="294" y="64"/>
      <point x="317" y="15"/>
      <point x="317" y="-38" type="curve" smooth="yes"/>
      <point x="317" y="-142"/>
      <point x="240" y="-226"/>
      <point x="132" y="-247" type="curve" smooth="yes"/>
      <point x="115" y="-250"/>
      <point x="97" y="-248"/>
      <point x="101" y="-226" type="curve" smooth="yes"/>
      <point x="101" y="-223"/>
      <point x="102" y="-219"/>
      <point x="102" y="-215" type="curve" smooth="yes"/>
      <point x="104" y="-208"/>
      <point x="107" y="-200"/>
      <point x="117" y="-198" type="curve" smooth="yes"/>
      <point x="183" y="-184"/>
      <point x="215" y="-146"/>
      <point x="215" y="-96" type="curve" smooth="yes"/>
      <point x="215" y="-42"/>
      <point x="194" y="9"/>
      <point x="194" y="63" type="curve" smooth="yes"/>
      <point x="194" y="110"/>
      <point x="215" y="153"/>
      <point x="251" y="189" type="curve" smooth="yes"/>
      <point x="271" y="209"/>
      <point x="286" y="220"/>
      <point x="308" y="231" type="curve" smooth="yes"/>
      <point x="310" y="231"/>
      <point x="308" y="232"/>
      <point x="307" y="233" type="curve" smooth="yes"/>
      <point x="236" y="271"/>
      <point x="194" y="329"/>
      <point x="194" y="398" type="curve" smooth="yes"/>
      <point x="194" y="449"/>
      <point x="214" y="502"/>
      <point x="214" y="555" type="curve" smooth="yes"/>
      <point x="214" y="607"/>
      <point x="186" y="629"/>
      <point x="157" y="643" type="curve" smooth="yes"/>
      <point x="143" y="650"/>
      <point x="128" y="655"/>
      <point x="118" y="661" type="curve" smooth="yes"/>
      <point x="103" y="669"/>
      <point x="99" y="673"/>
      <point x="101" y="688" type="curve" smooth="yes"/>
      <point x="101" y="698"/>
      <point x="108" y="713"/>
      <point x="121" y="711" type="curve" smooth="yes"/>
      <point x="236" y="693"/>
      <point x="316" y="607"/>
      <point x="316" y="501" type="curve" smooth="yes"/>
      <point x="316" y="449"/>
      <point x="293" y="400"/>
      <point x="293" y="348" type="curve" smooth="yes"/>
      <point x="293" y="308"/>
      <point x="322" y="274"/>
      <point x="383" y="259" type="curve" smooth="yes"/>
      <point x="393" y="256"/>
      <point x="404" y="246"/>
      <point x="404" y="233" type="curve" smooth="yes"/>
      <point x="404" y="221"/>
      <point x="403" y="208"/>
    </contour>
  </outline>
</glyph>
<glyph name="exclamdown" format="1">
  <advance width="272"/>
  <unicode hex="00A1"/>
  <outline>
    <contour>
      <point x="137" y="313" type="curve" smooth="yes"/>
      <point x="103" y="313"/>
      <point x="77" y="335"/>
      <point x="77" y="370" type="curve" smooth="yes"/>
      <point x="77" y="404"/>
      <point x="103" y="429"/>
      <point x="137" y="429" type="curve" smooth="yes"/>
      <point x="171" y="429"/>
      <point x="195" y="405"/>
      <point x="195" y="370" type="curve" smooth="yes"/>
      <point x="195" y="335"/>
      <point x="171" y="313"/>
    </contour>
    <contour>
      <point x="153" y="-249" type="curve" smooth="yes"/>
      <point x="124" y="-249" type="line" smooth="yes"/>
      <point x="81" y="-249"/>
      <point x="78" y="-228"/>
      <point x="80" y="-198" type="curve" smooth="yes"/>
      <point x="114" y="253" type="line"/>
      <point x="121" y="269"/>
      <point x="152" y="269"/>
      <point x="159" y="253" type="curve"/>
      <point x="195" y="-199" type="line" smooth="yes"/>
      <point x="198" y="-229"/>
      <point x="194" y="-249"/>
    </contour>
  </outline>
</glyph>
<glyph name="sterling" format="1">
  <advance width="796"/>
  <unicode hex="00A3"/>
  <outline>
    <contour>
      <point x="236" y="-34" type="curve"/>
      <point x="258" y="-28"/>
      <point x="280" y="-26"/>
      <point x="303" y="-26" type="curve" smooth="yes"/>
      <point x="373" y="-26"/>
      <point x="424" y="-58"/>
      <point x="468" y="-91" type="curve" smooth="yes"/>
      <point x="489" y="-106"/>
      <point x="510" y="-122"/>
      <point x="532" y="-135" type="curve" smooth="yes"/>
      <point x="553" y="-147"/>
      <point x="573" y="-154"/>
      <point x="595" y="-154" type="curve" smooth="yes"/>
      <point x="639" y="-154"/>
      <point x="670" y="-124"/>
      <point x="670" y="-94" type="curve" smooth="yes"/>
      <point x="670" y="-67"/>
      <point x="642" y="-46"/>
      <point x="642" y="-16" type="curve" smooth="yes"/>
      <point x="642" y="13"/>
      <point x="664" y="35"/>
      <point x="693" y="35" type="curve" smooth="yes"/>
      <point x="733" y="35"/>
      <point x="755" y="-7"/>
      <point x="755" y="-49" type="curve" smooth="yes"/>
      <point x="755" y="-147"/>
      <point x="653" y="-235"/>
      <point x="548" y="-235" type="curve" smooth="yes"/>
      <point x="511" y="-235"/>
      <point x="470" y="-224"/>
      <point x="438" y="-203" type="curve" smooth="yes"/>
      <point x="385" y="-169"/>
      <point x="317" y="-91"/>
      <point x="253" y="-91" type="curve" smooth="yes"/>
      <point x="231" y="-91"/>
      <point x="214" y="-96"/>
      <point x="183" y="-110" type="curve"/>
      <point x="148" y="-179"/>
      <point x="98" y="-234"/>
      <point x="54" y="-234" type="curve" smooth="yes"/>
      <point x="32" y="-234"/>
      <point x="10" y="-218"/>
      <point x="10" y="-193" type="curve" smooth="yes"/>
      <point x="10" y="-150"/>
      <point x="73" y="-96"/>
      <point x="134" y="-70" type="curve"/>
      <point x="156" y="-30"/>
      <point x="165" y="-12"/>
      <point x="185" y="40" type="curve" smooth="yes"/>
      <point x="187" y="45"/>
      <point x="189" y="49"/>
      <point x="190" y="54" type="curve" smooth="yes"/>
      <point x="191" y="55"/>
      <point x="192" y="55"/>
      <point x="191" y="55" type="curve" smooth="yes"/>
      <point x="77" y="55" type="line" smooth="yes"/>
      <point x="75" y="55"/>
      <point x="72" y="55"/>
      <point x="69" y="55" type="curve" smooth="yes"/>
      <point x="65" y="55"/>
      <point x="61" y="56"/>
      <point x="57" y="57" type="curve" smooth="yes"/>
      <point x="44" y="63"/>
      <point x="48" y="80"/>
      <point x="51" y="90" type="curve" smooth="yes"/>
      <point x="54" y="106"/>
      <point x="63" y="112"/>
      <point x="80" y="112" type="curve" smooth="yes"/>
      <point x="212" y="112" type="line"/>
      <point x="261" y="242"/>
      <point x="301" y="376"/>
      <point x="372" y="496" type="curve" smooth="yes"/>
      <point x="428" y="591"/>
      <point x="517" y="699"/>
      <point x="643" y="699" type="curve" smooth="yes"/>
      <point x="709" y="699"/>
      <point x="781" y="665"/>
      <point x="781" y="609" type="curve" smooth="yes"/>
      <point x="781" y="582"/>
      <point x="758" y="562"/>
      <point x="731" y="562" type="curve" smooth="yes"/>
      <point x="708" y="562"/>
      <point x="693" y="575"/>
      <point x="681" y="587" type="curve" smooth="yes"/>
      <point x="675" y="591"/>
      <point x="671" y="596"/>
      <point x="667" y="601" type="curve" smooth="yes"/>
      <point x="650" y="618"/>
      <point x="633" y="631"/>
      <point x="604" y="631" type="curve" smooth="yes"/>
      <point x="582" y="631"/>
      <point x="555" y="616"/>
      <point x="533" y="588" type="curve" smooth="yes"/>
      <point x="509" y="555"/>
      <point x="488" y="518"/>
      <point x="454" y="434" type="curve" smooth="yes"/>
      <point x="411" y="327"/>
      <point x="368" y="220"/>
      <point x="320" y="116" type="curve"/>
      <point x="317" y="111" type="line" smooth="yes"/>
      <point x="317" y="110"/>
      <point x="317" y="112"/>
      <point x="319" y="112" type="curve" smooth="yes"/>
      <point x="367" y="112"/>
      <point x="412" y="113"/>
      <point x="460" y="113" type="curve" smooth="yes"/>
      <point x="480" y="113"/>
      <point x="482" y="100"/>
      <point x="479" y="86" type="curve" smooth="yes"/>
      <point x="474" y="66"/>
      <point x="469" y="53"/>
      <point x="443" y="53" type="curve" smooth="yes"/>
      <point x="290" y="55" type="line"/>
      <point x="272" y="20"/>
      <point x="254" y="-8"/>
    </contour>
  </outline>
</glyph>
<glyph name="brokenbar" format="1">
  <advance width="534"/>
  <unicode hex="00A6"/>
  <outline>
    <contour>
      <point x="231" y="467" type="line"/>
      <point x="231" y="860" type="line"/>
      <point x="306" y="860" type="line"/>
      <point x="306" y="467" type="line"/>
    </contour>
    <contour>
      <point x="231" y="-22" type="line"/>
      <point x="231" y="370" type="line"/>
      <point x="306" y="370" type="line"/>
      <point x="306" y="-22" type="line"/>
    </contour>
  </outline>
</glyph>
<glyph name="dieresis" format="1">
  <advance width="348"/>
  <unicode hex="00A8"/>
  <outline>
    <contour>
      <point x="260" y="481" type="curve" smooth="yes"/>
      <point x="223" y="481"/>
      <point x="196" y="508"/>
      <point x="196" y="541" type="curve" smooth="yes"/>
      <point x="196" y="574"/>
      <point x="223" y="601"/>
      <point x="260" y="601" type="curve" smooth="yes"/>
      <point x="298" y="601"/>
      <point x="324" y="574"/>
      <point x="324" y="541" type="curve" smooth="yes"/>
      <point x="324" y="508"/>
      <point x="298" y="481"/>
    </contour>
    <contour>
      <point x="89" y="481" type="curve" smooth="yes"/>
      <point x="52" y="481"/>
      <point x="24" y="507"/>
      <point x="24" y="541" type="curve" smooth="yes"/>
      <point x="24" y="574"/>
      <point x="52" y="601"/>
      <point x="89" y="601" type="curve" smooth="yes"/>
      <point x="126" y="601"/>
      <point x="153" y="574"/>
      <point x="153" y="541" type="curve" smooth="yes"/>
      <point x="153" y="507"/>
      <point x="126" y="481"/>
    </contour>
  </outline>
</glyph>
<glyph name="macron" format="1">
  <advance width="349"/>
  <unicode hex="00AF"/>
  <outline>
    <contour>
      <point x="313" y="500" type="curve" smooth="yes"/>
      <point x="31" y="500" type="line" smooth="yes"/>
      <point x="8" y="500"/>
      <point x="7" y="513"/>
      <point x="7" y="523" type="curve" smooth="yes"/>
      <point x="7" y="558" type="line" smooth="yes"/>
      <point x="7" y="570"/>
      <point x="22" y="575"/>
      <point x="35" y="575" type="curve" smooth="yes"/>
      <point x="44" y="575" type="line"/>
      <point x="316" y="575" type="line" smooth="yes"/>
      <point x="331" y="575"/>
      <point x="341" y="573"/>
      <point x="341" y="554" type="curve" smooth="yes"/>
      <point x="341" y="520" type="line" smooth="yes"/>
      <point x="341" y="503"/>
      <point x="331" y="500"/>
    </contour>
  </outline>
</glyph>
<glyph name="plusminus" format="1">
  <advance width="698"/>
  <unicode hex="00B1"/>
  <outline>
    <contour>
      <point x="601" y="389" type="curve" smooth="yes"/>
      <point x="415" y="389" type="line" smooth="yes"/>
      <point x="405" y="389"/>
      <point x="393" y="383"/>
      <point x="393" y="377" type="curve" smooth="yes"/>
      <point x="393" y="179" type="line" smooth="yes"/>
      <point x="393" y="154"/>
      <point x="390" y="149"/>
      <point x="366" y="149" type="curve" smooth="yes"/>
      <point x="353" y="149"/>
      <point x="344" y="147"/>
      <point x="335" y="149" type="curve" smooth="yes"/>
      <point x="310" y="150"/>
      <point x="307" y="160"/>
      <point x="307" y="179" type="curve" smooth="yes"/>
      <point x="307" y="375" type="line" smooth="yes"/>
      <point x="307" y="384"/>
      <point x="301" y="389"/>
      <point x="295" y="389" type="curve" smooth="yes"/>
      <point x="97" y="389" type="line" smooth="yes"/>
      <point x="77" y="389"/>
      <point x="66" y="388"/>
      <point x="66" y="413" type="curve" smooth="yes"/>
      <point x="66" y="449" type="line" smooth="yes"/>
      <point x="66" y="472"/>
      <point x="79" y="474"/>
      <point x="103" y="474" type="curve" smooth="yes"/>
      <point x="294" y="474" type="line" smooth="yes"/>
      <point x="300" y="474"/>
      <point x="307" y="480"/>
      <point x="307" y="490" type="curve" smooth="yes"/>
      <point x="307" y="671" type="line" smooth="yes"/>
      <point x="307" y="676"/>
      <point x="306" y="679"/>
      <point x="306" y="683" type="curve" smooth="yes"/>
      <point x="306" y="698"/>
      <point x="311" y="716"/>
      <point x="330" y="716" type="curve" smooth="yes"/>
      <point x="366" y="716" type="line" smooth="yes"/>
      <point x="385" y="716"/>
      <point x="393" y="708"/>
      <point x="393" y="684" type="curve" smooth="yes"/>
      <point x="393" y="487" type="line" smooth="yes"/>
      <point x="394" y="479"/>
      <point x="404" y="474"/>
      <point x="410" y="474" type="curve" smooth="yes"/>
      <point x="604" y="474" type="line" smooth="yes"/>
      <point x="627" y="474"/>
      <point x="635" y="466"/>
      <point x="635" y="447" type="curve" smooth="yes"/>
      <point x="635" y="417" type="line" smooth="yes"/>
      <point x="635" y="390"/>
      <point x="619" y="389"/>
    </contour>
    <contour>
      <point x="604" y="-13" type="curve" smooth="yes"/>
      <point x="444" y="-12"/>
      <point x="226" y="-12"/>
      <point x="104" y="-14" type="curve" smooth="yes"/>
      <point x="77" y="-14"/>
      <point x="67" y="-14"/>
      <point x="67" y="16" type="curve" smooth="yes"/>
      <point x="67" y="42" type="line" smooth="yes"/>
      <point x="67" y="58"/>
      <point x="69" y="75"/>
      <point x="97" y="73" type="curve" smooth="yes"/>
      <point x="213" y="74"/>
      <point x="489" y="73"/>
      <point x="605" y="73" type="curve" smooth="yes"/>
      <point x="627" y="72"/>
      <point x="635" y="64"/>
      <point x="635" y="43" type="curve" smooth="yes"/>
      <point x="635" y="18" type="line" smooth="yes"/>
      <point x="635" y="-11"/>
      <point x="627" y="-13"/>
    </contour>
  </outline>
</glyph>
<glyph name="mu" format="1">
  <advance width="524"/>
  <unicode hex="00B5"/>
  <outline>
    <contour>
      <point x="414" y="-26" type="curve" smooth="yes"/>
      <point x="368" y="-26"/>
      <point x="340" y="-1"/>
      <point x="327" y="44" type="curve" smooth="yes"/>
      <point x="326" y="46"/>
      <point x="325" y="48"/>
      <point x="324" y="46" type="curve" smooth="yes"/>
      <point x="294" y="15"/>
      <point x="273" y="0"/>
      <point x="237" y="-15" type="curve" smooth="yes"/>
      <point x="206" y="-27"/>
      <point x="162" y="-33"/>
      <point x="129" y="-13" type="curve" smooth="yes"/>
      <point x="123" y="-10"/>
      <point x="120" y="-5"/>
      <point x="121" y="-17" type="curve" smooth="yes"/>
      <point x="123" y="-38"/>
      <point x="127" y="-61"/>
      <point x="136" y="-106" type="curve" smooth="yes"/>
      <point x="141" y="-127"/>
      <point x="144" y="-145"/>
      <point x="144" y="-160" type="curve" smooth="yes"/>
      <point x="144" y="-197"/>
      <point x="119" y="-232"/>
      <point x="81" y="-232" type="curve" smooth="yes"/>
      <point x="43" y="-232"/>
      <point x="22" y="-198"/>
      <point x="22" y="-161" type="curve" smooth="yes"/>
      <point x="22" y="-121"/>
      <point x="35" y="-83"/>
      <point x="45" y="-44" type="curve" smooth="yes"/>
      <point x="49" y="-28"/>
      <point x="53" y="27"/>
      <point x="53" y="66" type="curve" smooth="yes"/>
      <point x="55" y="158"/>
      <point x="55" y="348"/>
      <point x="53" y="430" type="curve" smooth="yes"/>
      <point x="52" y="465"/>
      <point x="60" y="475"/>
      <point x="92" y="475" type="curve" smooth="yes"/>
      <point x="136" y="475" type="line" smooth="yes"/>
      <point x="166" y="475"/>
      <point x="165" y="447"/>
      <point x="166" y="423" type="curve" smooth="yes"/>
      <point x="168" y="366"/>
      <point x="166" y="251"/>
      <point x="166" y="194" type="curve" smooth="yes"/>
      <point x="166" y="162" type="line" smooth="yes"/>
      <point x="166" y="88"/>
      <point x="188" y="67"/>
      <point x="221" y="67" type="curve" smooth="yes"/>
      <point x="251" y="67"/>
      <point x="284" y="84"/>
      <point x="321" y="124" type="curve"/>
      <point x="323" y="202"/>
      <point x="323" y="348"/>
      <point x="320" y="427" type="curve" smooth="yes"/>
      <point x="319" y="459"/>
      <point x="314" y="476"/>
      <point x="349" y="475" type="curve" smooth="yes"/>
      <point x="405" y="474" type="line" smooth="yes"/>
      <point x="440" y="473"/>
      <point x="434" y="456"/>
      <point x="434" y="431" type="curve" smooth="yes"/>
      <point x="434" y="134" type="line" smooth="yes"/>
      <point x="434" y="124"/>
      <point x="434" y="106"/>
      <point x="434" y="97" type="curve" smooth="yes"/>
      <point x="434" y="59"/>
      <point x="447" y="59"/>
      <point x="453" y="59" type="curve" smooth="yes"/>
      <point x="457" y="59"/>
      <point x="468" y="64"/>
      <point x="476" y="107" type="curve" smooth="yes"/>
      <point x="478" y="117"/>
      <point x="484" y="121"/>
      <point x="491" y="121" type="curve" smooth="yes"/>
      <point x="516" y="121" type="line"/>
      <point x="550" y="116"/>
      <point x="524" y="-26"/>
    </contour>
  </outline>
</glyph>
<glyph name="paragraph" format="1">
  <advance width="494"/>
  <unicode hex="00B6"/>
  <outline>
    <contour>
      <point x="461" y="592" type="curve" smooth="yes"/>
      <point x="435" y="592" type="line" smooth="yes"/>
      <point x="427" y="592"/>
      <point x="422" y="582"/>
      <point x="422" y="575" type="curve" smooth="yes"/>
      <point x="422" y="-223" type="line" smooth="yes"/>
      <point x="422" y="-244"/>
      <point x="416" y="-246"/>
      <point x="395" y="-246" type="curve" smooth="yes"/>
      <point x="378" y="-246" type="line" smooth="yes"/>
      <point x="369" y="-246"/>
      <point x="351" y="-246"/>
      <point x="351" y="-224" type="curve" smooth="yes"/>
      <point x="352" y="575" type="line" smooth="yes"/>
      <point x="352" y="585"/>
      <point x="351" y="590"/>
      <point x="342" y="590" type="curve" smooth="yes"/>
      <point x="303" y="590" type="line" smooth="yes"/>
      <point x="300" y="590"/>
      <point x="295" y="584"/>
      <point x="295" y="577" type="curve" smooth="yes"/>
      <point x="296" y="-227" type="line" smooth="yes"/>
      <point x="296" y="-246"/>
      <point x="282" y="-247"/>
      <point x="270" y="-247" type="curve" smooth="yes"/>
      <point x="248" y="-247" type="line" smooth="yes"/>
      <point x="226" y="-247"/>
      <point x="223" y="-238"/>
      <point x="223" y="-223" type="curve" smooth="yes"/>
      <point x="223" y="234" type="line" smooth="yes"/>
      <point x="223" y="238"/>
      <point x="222" y="248"/>
      <point x="215" y="248" type="curve" smooth="yes"/>
      <point x="108" y="250"/>
      <point x="47" y="285"/>
      <point x="12" y="352" type="curve" smooth="yes"/>
      <point x="-5" y="383"/>
      <point x="-12" y="417"/>
      <point x="-12" y="453" type="curve" smooth="yes"/>
      <point x="-12" y="584"/>
      <point x="80" y="659"/>
      <point x="226" y="660" type="curve" smooth="yes"/>
      <point x="287" y="660"/>
      <point x="407" y="658"/>
      <point x="459" y="661" type="curve" smooth="yes"/>
      <point x="479" y="662"/>
      <point x="488" y="658"/>
      <point x="488" y="637" type="curve" smooth="yes"/>
      <point x="488" y="614" type="line" smooth="yes"/>
      <point x="488" y="590"/>
      <point x="472" y="592"/>
    </contour>
  </outline>
</glyph>
<glyph name="onesuperior" format="1">
  <advance width="300"/>
  <unicode hex="00B9"/>
  <outline>
    <contour>
      <point x="236" y="299" type="curve" smooth="yes"/>
      <point x="187" y="301"/>
      <point x="132" y="301"/>
      <point x="84" y="299" type="curve" smooth="yes"/>
      <point x="72" y="299"/>
      <point x="66" y="315"/>
      <point x="66" y="324" type="curve" smooth="yes"/>
      <point x="66" y="334"/>
      <point x="72" y="348"/>
      <point x="82" y="349" type="curve" smooth="yes"/>
      <point x="110" y="352" type="line" smooth="yes"/>
      <point x="118" y="353"/>
      <point x="119" y="353"/>
      <point x="119" y="359" type="curve" smooth="yes"/>
      <point x="119" y="545" type="line"/>
      <point x="104" y="537"/>
      <point x="87" y="530"/>
      <point x="70" y="524" type="curve"/>
      <point x="48" y="523"/>
      <point x="34" y="548"/>
      <point x="47" y="563" type="curve"/>
      <point x="86" y="587"/>
      <point x="125" y="617"/>
      <point x="143" y="638" type="curve" smooth="yes"/>
      <point x="147" y="644"/>
      <point x="201" y="640"/>
      <point x="201" y="629" type="curve" smooth="yes"/>
      <point x="201" y="360" type="line" smooth="yes"/>
      <point x="201" y="357"/>
      <point x="201" y="356"/>
      <point x="201" y="354" type="curve" smooth="yes"/>
      <point x="201" y="351"/>
      <point x="201" y="352"/>
      <point x="205" y="352" type="curve" smooth="yes"/>
      <point x="212" y="352"/>
      <point x="223" y="350"/>
      <point x="230" y="351" type="curve" smooth="yes"/>
      <point x="241" y="349"/>
      <point x="251" y="350"/>
      <point x="252" y="337" type="curve" smooth="yes"/>
      <point x="253" y="334"/>
      <point x="253" y="330"/>
      <point x="253" y="324" type="curve" smooth="yes"/>
      <point x="253" y="313"/>
      <point x="246" y="299"/>
    </contour>
  </outline>
</glyph>
<glyph name="ordmasculine" format="1">
  <advance width="360"/>
  <unicode hex="00BA"/>
  <outline>
    <contour>
      <point x="182" y="402" type="curve" smooth="yes"/>
      <point x="94" y="402"/>
      <point x="24" y="459"/>
      <point x="24" y="538" type="curve" smooth="yes"/>
      <point x="24" y="617"/>
      <point x="93" y="674"/>
      <point x="180" y="674" type="curve" smooth="yes"/>
      <point x="267" y="674"/>
      <point x="336" y="617"/>
      <point x="336" y="538" type="curve" smooth="yes"/>
      <point x="336" y="460"/>
      <point x="267" y="402"/>
    </contour>
    <contour>
      <point x="171" y="630" type="curve" smooth="yes"/>
      <point x="135" y="630"/>
      <point x="105" y="601"/>
      <point x="105" y="556" type="curve" smooth="yes"/>
      <point x="105" y="491"/>
      <point x="146" y="447"/>
      <point x="190" y="447" type="curve" smooth="yes"/>
      <point x="226" y="447"/>
      <point x="256" y="477"/>
      <point x="256" y="524" type="curve" smooth="yes"/>
      <point x="256" y="586"/>
      <point x="214" y="630"/>
    </contour>
  </outline>
</glyph>
<glyph name="onequarter" format="1">
  <advance width="715"/>
  <unicode hex="00BC"/>
  <outline>
    <contour>
      <point x="162" y="-22" type="line" smooth="yes"/>
      <point x="158" y="-28"/>
      <point x="150" y="-34"/>
      <point x="140" y="-34" type="curve" smooth="yes"/>
      <point x="108" y="-34" type="line" smooth="yes"/>
      <point x="86" y="-34"/>
      <point x="87" y="-8"/>
      <point x="93" y="1" type="curve" smooth="yes"/>
      <point x="558" y="649" type="line"/>
      <point x="560" y="654" type="line" smooth="yes"/>
      <point x="566" y="660"/>
      <point x="571" y="660"/>
      <point x="575" y="660" type="curve" smooth="yes"/>
      <point x="578" y="660" type="line"/>
      <point x="619" y="660" type="line" smooth="yes"/>
      <point x="631" y="660"/>
      <point x="638" y="643"/>
      <point x="628" y="629" type="curve" smooth="yes"/>
    </contour>
    <contour>
      <point x="245" y="288" type="curve" smooth="yes"/>
      <point x="193" y="290"/>
      <point x="136" y="290"/>
      <point x="86" y="288" type="curve" smooth="yes"/>
      <point x="73" y="288"/>
      <point x="67" y="303"/>
      <point x="67" y="315" type="curve" smooth="yes"/>
      <point x="68" y="324"/>
      <point x="74" y="339"/>
      <point x="84" y="340" type="curve" smooth="yes"/>
      <point x="115" y="342" type="line" smooth="yes"/>
      <point x="122" y="342"/>
      <point x="122" y="343"/>
      <point x="122" y="350" type="curve" smooth="yes"/>
      <point x="122" y="542" type="line"/>
      <point x="105" y="534"/>
      <point x="88" y="528"/>
      <point x="71" y="520" type="curve"/>
      <point x="48" y="520"/>
      <point x="34" y="544"/>
      <point x="47" y="561" type="curve"/>
      <point x="88" y="586"/>
      <point x="129" y="617"/>
      <point x="148" y="639" type="curve" smooth="yes"/>
      <point x="152" y="644"/>
      <point x="208" y="641"/>
      <point x="208" y="629" type="curve" smooth="yes"/>
      <point x="208" y="351" type="line" smooth="yes"/>
      <point x="208" y="344"/>
      <point x="208" y="343"/>
      <point x="213" y="343" type="curve" smooth="yes"/>
      <point x="223" y="342"/>
      <point x="234" y="344"/>
      <point x="244" y="342" type="curve" smooth="yes"/>
      <point x="255" y="339"/>
      <point x="262" y="331"/>
      <point x="262" y="314" type="curve" smooth="yes"/>
      <point x="262" y="301"/>
      <point x="255" y="288"/>
    </contour>
    <contour>
      <point x="547" y="-17" type="curve" smooth="yes"/>
      <point x="538" y="-16"/>
      <point x="533" y="-10"/>
      <point x="530" y="0" type="curve" smooth="yes"/>
      <point x="530" y="69" type="line" smooth="yes"/>
      <point x="529" y="80"/>
      <point x="527" y="82"/>
      <point x="525" y="82" type="curve" smooth="yes"/>
      <point x="408" y="82" type="line" smooth="yes"/>
      <point x="389" y="82"/>
      <point x="384" y="91"/>
      <point x="384" y="103" type="curve"/>
      <point x="384" y="103" type="line"/>
      <point x="384" y="121" type="line"/>
      <point x="562" y="346" type="line"/>
      <point x="576" y="350"/>
      <point x="584" y="352"/>
      <point x="598" y="349" type="curve" smooth="yes"/>
      <point x="606" y="348"/>
      <point x="618" y="341"/>
      <point x="616" y="327" type="curve" smooth="yes"/>
      <point x="616" y="153" type="line" smooth="yes"/>
      <point x="616" y="150"/>
      <point x="624" y="149"/>
      <point x="624" y="149" type="curve"/>
      <point x="655" y="149" type="line" smooth="yes"/>
      <point x="673" y="149"/>
      <point x="679" y="140"/>
      <point x="679" y="126" type="curve" smooth="yes"/>
      <point x="679" y="118"/>
      <point x="680" y="101"/>
      <point x="676" y="93" type="curve" smooth="yes"/>
      <point x="673" y="86"/>
      <point x="665" y="82"/>
      <point x="660" y="82" type="curve" smooth="yes"/>
      <point x="622" y="82" type="line" smooth="yes"/>
      <point x="619" y="81"/>
      <point x="616" y="78"/>
      <point x="616" y="70" type="curve" smooth="yes"/>
      <point x="617" y="5" type="line" smooth="yes"/>
      <point x="617" y="-10"/>
      <point x="616" y="-18"/>
      <point x="597" y="-18" type="curve" smooth="yes"/>
      <point x="596" y="-18"/>
      <point x="585" y="-18"/>
      <point x="574" y="-18" type="curve" smooth="yes"/>
      <point x="563" y="-18"/>
      <point x="551" y="-18"/>
    </contour>
    <contour>
      <point x="526" y="211" type="curve" smooth="yes"/>
      <point x="480" y="149" type="line"/>
      <point x="523" y="149" type="line" smooth="yes"/>
      <point x="525" y="149"/>
      <point x="529" y="149"/>
      <point x="530" y="155" type="curve" smooth="yes"/>
      <point x="531" y="209" type="line" smooth="yes"/>
      <point x="531" y="216"/>
      <point x="529" y="215"/>
    </contour>
  </outline>
</glyph>
<glyph name="onehalf" format="1">
  <advance width="715"/>
  <unicode hex="00BD"/>
  <outline>
    <contour>
      <point x="528" y="66" type="curve"/>
      <point x="603" y="66" type="line" smooth="yes"/>
      <point x="609" y="66"/>
      <point x="628" y="65"/>
      <point x="633" y="67" type="curve" smooth="yes"/>
      <point x="643" y="80"/>
      <point x="633" y="104"/>
      <point x="658" y="104" type="curve" smooth="yes"/>
      <point x="662" y="104"/>
      <point x="671" y="104"/>
      <point x="679" y="104" type="curve" smooth="yes"/>
      <point x="693" y="104"/>
      <point x="696" y="98"/>
      <point x="696" y="87" type="curve" smooth="yes"/>
      <point x="692" y="57"/>
      <point x="691" y="42"/>
      <point x="686" y="15" type="curve" smooth="yes"/>
      <point x="682" y="-2"/>
      <point x="672" y="-6"/>
      <point x="658" y="-6" type="curve" smooth="yes"/>
      <point x="435" y="-6" type="line" smooth="yes"/>
      <point x="421" y="-6"/>
      <point x="415" y="-4"/>
      <point x="415" y="11" type="curve" smooth="yes"/>
      <point x="415" y="29" type="line"/>
      <point x="433" y="51"/>
      <point x="456" y="74"/>
      <point x="497" y="109" type="curve" smooth="yes"/>
      <point x="532" y="138"/>
      <point x="592" y="183"/>
      <point x="592" y="231" type="curve" smooth="yes"/>
      <point x="592" y="254"/>
      <point x="571" y="274"/>
      <point x="541" y="274" type="curve" smooth="yes"/>
      <point x="513" y="274"/>
      <point x="487" y="255"/>
      <point x="474" y="218" type="curve" smooth="yes"/>
      <point x="470" y="209"/>
      <point x="421" y="203"/>
      <point x="421" y="224" type="curve" smooth="yes"/>
      <point x="428" y="298"/>
      <point x="485" y="344"/>
      <point x="557" y="344" type="curve" smooth="yes"/>
      <point x="624" y="344"/>
      <point x="684" y="302"/>
      <point x="684" y="238" type="curve" smooth="yes"/>
      <point x="684" y="172"/>
      <point x="632" y="140"/>
      <point x="585" y="108" type="curve" smooth="yes"/>
      <point x="566" y="96"/>
      <point x="549" y="83"/>
    </contour>
    <contour>
      <point x="162" y="-22" type="line" smooth="yes"/>
      <point x="156" y="-30"/>
      <point x="151" y="-40"/>
      <point x="139" y="-38" type="curve" smooth="yes"/>
      <point x="137" y="-37"/>
      <point x="135" y="-37"/>
      <point x="134" y="-37" type="curve" smooth="yes"/>
      <point x="106" y="-31" type="line" smooth="yes"/>
      <point x="87" y="-27"/>
      <point x="84" y="-13"/>
      <point x="90" y="-4" type="curve" smooth="yes"/>
      <point x="558" y="650" type="line" smooth="yes"/>
      <point x="568" y="664"/>
      <point x="571" y="658"/>
      <point x="582" y="662" type="curve"/>
      <point x="591" y="660"/>
      <point x="648" y="657"/>
      <point x="628" y="629" type="curve" smooth="yes"/>
    </contour>
    <contour>
      <point x="236" y="294" type="curve" smooth="yes"/>
      <point x="187" y="296"/>
      <point x="132" y="296"/>
      <point x="84" y="294" type="curve" smooth="yes"/>
      <point x="72" y="294"/>
      <point x="66" y="310"/>
      <point x="66" y="320" type="curve" smooth="yes"/>
      <point x="66" y="329"/>
      <point x="72" y="344"/>
      <point x="82" y="345" type="curve" smooth="yes"/>
      <point x="110" y="348" type="line" smooth="yes"/>
      <point x="118" y="349"/>
      <point x="119" y="349"/>
      <point x="119" y="355" type="curve" smooth="yes"/>
      <point x="119" y="544" type="line"/>
      <point x="104" y="535"/>
      <point x="87" y="529"/>
      <point x="70" y="523" type="curve"/>
      <point x="48" y="521"/>
      <point x="34" y="547"/>
      <point x="47" y="563" type="curve"/>
      <point x="86" y="586"/>
      <point x="125" y="617"/>
      <point x="143" y="639" type="curve" smooth="yes"/>
      <point x="147" y="644"/>
      <point x="201" y="640"/>
      <point x="201" y="629" type="curve" smooth="yes"/>
      <point x="201" y="356" type="line" smooth="yes"/>
      <point x="201" y="354"/>
      <point x="201" y="352"/>
      <point x="201" y="350" type="curve" smooth="yes"/>
      <point x="201" y="347"/>
      <point x="201" y="348"/>
      <point x="205" y="348" type="curve" smooth="yes"/>
      <point x="212" y="348"/>
      <point x="223" y="346"/>
      <point x="230" y="347" type="curve" smooth="yes"/>
      <point x="241" y="345"/>
      <point x="251" y="346"/>
      <point x="252" y="333" type="curve" smooth="yes"/>
      <point x="253" y="330"/>
      <point x="253" y="326"/>
      <point x="253" y="320" type="curve" smooth="yes"/>
      <point x="253" y="309"/>
      <point x="246" y="294"/>
    </contour>
  </outline>
</glyph>
<glyph name="Icircumflex" format="1">
  <advance width="362"/>
  <unicode hex="00CE"/>
  <outline>
    <contour>
      <point x="320" y="710" type="curve" smooth="yes"/>
      <point x="312" y="708"/>
      <point x="298" y="708"/>
      <point x="291" y="714" type="curve" smooth="yes"/>
      <point x="180" y="810" type="line"/>
      <point x="76" y="714" type="line" smooth="yes"/>
      <point x="61" y="700"/>
      <point x="27" y="713"/>
      <point x="38" y="733" type="curve" smooth="yes"/>
      <point x="123" y="885" type="line" smooth="yes"/>
      <point x="128" y="893"/>
      <point x="135" y="897"/>
      <point x="142" y="900" type="curve" smooth="yes"/>
      <point x="151" y="901"/>
      <point x="205" y="902"/>
      <point x="218" y="901" type="curve" smooth="yes"/>
      <point x="230" y="900"/>
      <point x="236" y="897"/>
      <point x="242" y="886" type="curve" smooth="yes"/>
      <point x="327" y="738" type="line" smooth="yes"/>
      <point x="331" y="730"/>
      <point x="334" y="714"/>
    </contour>
    <contour>
      <point x="309" y="603" type="curve" smooth="yes"/>
      <point x="303" y="603"/>
      <point x="298" y="602"/>
      <point x="295" y="602" type="curve" smooth="yes"/>
      <point x="245" y="602"/>
      <point x="237" y="600"/>
      <point x="237" y="512" type="curve" smooth="yes"/>
      <point x="237" y="107" type="line" smooth="yes"/>
      <point x="237" y="78"/>
      <point x="243" y="67"/>
      <point x="252" y="61" type="curve" smooth="yes"/>
      <point x="267" y="50"/>
      <point x="294" y="56"/>
      <point x="312" y="51" type="curve"/>
      <point x="334" y="38"/>
      <point x="327" y="-4"/>
      <point x="308" y="-3" type="curve" smooth="yes"/>
      <point x="247" y="-1"/>
      <point x="129" y="-1"/>
      <point x="69" y="-3" type="curve" smooth="yes"/>
      <point x="56" y="-3"/>
      <point x="46" y="7"/>
      <point x="46" y="22" type="curve" smooth="yes"/>
      <point x="46" y="32"/>
      <point x="55" y="50"/>
      <point x="65" y="51" type="curve" smooth="yes"/>
      <point x="121" y="56"/>
      <point x="122" y="60"/>
      <point x="123" y="107" type="curve" smooth="yes"/>
      <point x="124" y="141" type="line"/>
      <point x="124" y="512" type="line"/>
      <point x="123" y="546" type="line" smooth="yes"/>
      <point x="122" y="592"/>
      <point x="118" y="599"/>
      <point x="71" y="604" type="curve" smooth="yes"/>
      <point x="39" y="608"/>
      <point x="44" y="656"/>
      <point x="70" y="656" type="curve" smooth="yes"/>
      <point x="184" y="655"/>
      <point x="173" y="650"/>
      <point x="297" y="656" type="curve" smooth="yes"/>
      <point x="337" y="658"/>
      <point x="323" y="606"/>
    </contour>
  </outline>
</glyph>
<glyph name="Ograve" format="1">
  <advance width="827"/>
  <unicode hex="00D2"/>
  <outline>
    <contour>
      <point x="454" y="722" type="curve" smooth="yes"/>
      <point x="422" y="763"/>
      <point x="364" y="829"/>
      <point x="322" y="874" type="curve" smooth="yes"/>
      <point x="305" y="893"/>
      <point x="331" y="910"/>
      <point x="344" y="910" type="curve" smooth="yes"/>
      <point x="416" y="911" type="line" smooth="yes"/>
      <point x="428" y="911"/>
      <point x="438" y="910"/>
      <point x="444" y="897" type="curve" smooth="yes"/>
      <point x="461" y="853"/>
      <point x="483" y="778"/>
      <point x="494" y="735" type="curve"/>
      <point x="494" y="707"/>
      <point x="464" y="712"/>
    </contour>
    <contour>
      <point x="413" y="-19" type="curve" smooth="yes"/>
      <point x="202" y="-19"/>
      <point x="45" y="125"/>
      <point x="45" y="313" type="curve" smooth="yes"/>
      <point x="45" y="517"/>
      <point x="200" y="669"/>
      <point x="415" y="669" type="curve" smooth="yes"/>
      <point x="626" y="669"/>
      <point x="777" y="529"/>
      <point x="777" y="340" type="curve" smooth="yes"/>
      <point x="777" y="139"/>
      <point x="622" y="-19"/>
    </contour>
    <contour>
      <point x="387" y="612" type="curve" smooth="yes"/>
      <point x="260" y="612"/>
      <point x="176" y="503"/>
      <point x="176" y="339" type="curve" smooth="yes"/>
      <point x="176" y="166"/>
      <point x="282" y="40"/>
      <point x="430" y="40" type="curve" smooth="yes"/>
      <point x="594" y="40"/>
      <point x="646" y="164"/>
      <point x="646" y="311" type="curve" smooth="yes"/>
      <point x="646" y="489"/>
      <point x="542" y="612"/>
    </contour>
  </outline>
</glyph>
<glyph name="Oacute" format="1">
  <advance width="827"/>
  <unicode hex="00D3"/>
  <outline>
    <contour>
      <point x="548" y="873" type="curve" smooth="yes"/>
      <point x="403" y="707" type="line" smooth="yes"/>
      <point x="393" y="695"/>
      <point x="356" y="696"/>
      <point x="365" y="724" type="curve" smooth="yes"/>
      <point x="413" y="884" type="line" smooth="yes"/>
      <point x="417" y="897"/>
      <point x="430" y="904"/>
      <point x="440" y="904" type="curve" smooth="yes"/>
      <point x="476" y="904"/>
      <point x="504" y="906"/>
      <point x="522" y="905" type="curve" smooth="yes"/>
      <point x="545" y="904"/>
      <point x="554" y="898"/>
      <point x="551" y="884" type="curve" smooth="yes"/>
      <point x="551" y="880"/>
      <point x="550" y="876"/>
    </contour>
    <contour>
      <point x="413" y="-19" type="curve" smooth="yes"/>
      <point x="202" y="-19"/>
      <point x="45" y="125"/>
      <point x="45" y="314" type="curve" smooth="yes"/>
      <point x="45" y="517"/>
      <point x="200" y="669"/>
      <point x="415" y="669" type="curve" smooth="yes"/>
      <point x="626" y="669"/>
      <point x="777" y="529"/>
      <point x="777" y="340" type="curve" smooth="yes"/>
      <point x="777" y="139"/>
      <point x="622" y="-19"/>
    </contour>
    <contour>
      <point x="387" y="612" type="curve" smooth="yes"/>
      <point x="260" y="612"/>
      <point x="176" y="503"/>
      <point x="176" y="339" type="curve" smooth="yes"/>
      <point x="176" y="166"/>
      <point x="282" y="40"/>
      <point x="430" y="40" type="curve" smooth="yes"/>
      <point x="594" y="40"/>
      <point x="646" y="164"/>
      <point x="646" y="311" type="curve" smooth="yes"/>
      <point x="646" y="489"/>
      <point x="542" y="612"/>
    </contour>
  </outline>
</glyph>
<glyph name="Odieresis" format="1">
  <advance width="827"/>
  <unicode hex="00D6"/>
  <outline>
    <contour>
      <point x="502" y="714" type="curve" smooth="yes"/>
      <point x="463" y="714"/>
      <point x="432" y="745"/>
      <point x="432" y="783" type="curve" smooth="yes"/>
      <point x="432" y="821"/>
      <point x="463" y="852"/>
      <point x="502" y="852" type="curve" smooth="yes"/>
      <point x="541" y="852"/>
      <point x="572" y="821"/>
      <point x="572" y="783" type="curve" smooth="yes"/>
      <point x="572" y="745"/>
      <point x="541" y="714"/>
    </contour>
    <contour>
      <point x="327" y="714" type="curve" smooth="yes"/>
      <point x="289" y="714"/>
      <point x="257" y="744"/>
      <point x="257" y="783" type="curve" smooth="yes"/>
      <point x="257" y="821"/>
      <point x="289" y="852"/>
      <point x="327" y="852" type="curve" smooth="yes"/>
      <point x="366" y="852"/>
      <point x="397" y="821"/>
      <point x="397" y="783" type="curve" smooth="yes"/>
      <point x="397" y="744"/>
      <point x="365" y="714"/>
    </contour>
    <contour>
      <point x="413" y="-19" type="curve" smooth="yes"/>
      <point x="202" y="-19"/>
      <point x="45" y="125"/>
      <point x="45" y="313" type="curve" smooth="yes"/>
      <point x="45" y="517"/>
      <point x="200" y="669"/>
      <point x="415" y="669" type="curve" smooth="yes"/>
      <point x="626" y="669"/>
      <point x="777" y="529"/>
      <point x="777" y="340" type="curve" smooth="yes"/>
      <point x="777" y="138"/>
      <point x="622" y="-19"/>
    </contour>
    <contour>
      <point x="387" y="611" type="curve" smooth="yes"/>
      <point x="260" y="611"/>
      <point x="176" y="503"/>
      <point x="176" y="339" type="curve" smooth="yes"/>
      <point x="176" y="166"/>
      <point x="282" y="40"/>
      <point x="430" y="40" type="curve" smooth="yes"/>
      <point x="594" y="40"/>
      <point x="646" y="164"/>
      <point x="646" y="310" type="curve" smooth="yes"/>
      <point x="646" y="488"/>
      <point x="542" y="611"/>
    </contour>
  </outline>
</glyph>
<glyph name="Udieresis" format="1">
  <advance width="815"/>
  <unicode hex="00DC"/>
  <outline>
    <contour>
      <point x="532" y="706" type="curve" smooth="yes"/>
      <point x="494" y="706"/>
      <point x="461" y="737"/>
      <point x="461" y="775" type="curve" smooth="yes"/>
      <point x="461" y="813"/>
      <point x="494" y="844"/>
      <point x="532" y="844" type="curve" smooth="yes"/>
      <point x="571" y="844"/>
      <point x="601" y="813"/>
      <point x="601" y="775" type="curve" smooth="yes"/>
      <point x="601" y="737"/>
      <point x="571" y="706"/>
    </contour>
    <contour>
      <point x="307" y="706" type="curve" smooth="yes"/>
      <point x="269" y="706"/>
      <point x="237" y="736"/>
      <point x="237" y="775" type="curve" smooth="yes"/>
      <point x="237" y="813"/>
      <point x="268" y="844"/>
      <point x="307" y="844" type="curve" smooth="yes"/>
      <point x="345" y="844"/>
      <point x="377" y="813"/>
      <point x="377" y="775" type="curve" smooth="yes"/>
      <point x="377" y="736"/>
      <point x="345" y="706"/>
    </contour>
    <contour>
      <point x="780" y="603" type="curve" smooth="yes"/>
      <point x="711" y="601"/>
      <point x="698" y="590"/>
      <point x="698" y="487" type="curve" smooth="yes"/>
      <point x="698" y="307" type="line" smooth="yes"/>
      <point x="698" y="206"/>
      <point x="697" y="131"/>
      <point x="612" y="56" type="curve" smooth="yes"/>
      <point x="554" y="5"/>
      <point x="501" y="-19"/>
      <point x="402" y="-19" type="curve" smooth="yes"/>
      <point x="265" y="-19"/>
      <point x="178" y="35"/>
      <point x="133" y="133" type="curve" smooth="yes"/>
      <point x="112" y="179"/>
      <point x="110" y="203"/>
      <point x="110" y="298" type="curve" smooth="yes"/>
      <point x="110" y="551" type="line" smooth="yes"/>
      <point x="110" y="597"/>
      <point x="109" y="602"/>
      <point x="37" y="602" type="curve" smooth="yes"/>
      <point x="24" y="603"/>
      <point x="4" y="652"/>
      <point x="37" y="654" type="curve" smooth="yes"/>
      <point x="64" y="656"/>
      <point x="222" y="656"/>
      <point x="304" y="654" type="curve" smooth="yes"/>
      <point x="332" y="654"/>
      <point x="326" y="602"/>
      <point x="303" y="602" type="curve" smooth="yes"/>
      <point x="294" y="602" type="line" smooth="yes"/>
      <point x="241" y="602"/>
      <point x="233" y="592"/>
      <point x="232" y="545" type="curve" smooth="yes"/>
      <point x="232" y="531"/>
      <point x="231" y="517"/>
      <point x="231" y="502" type="curve" smooth="yes"/>
      <point x="231" y="312" type="line" smooth="yes"/>
      <point x="231" y="171"/>
      <point x="270" y="66"/>
      <point x="425" y="66" type="curve" smooth="yes"/>
      <point x="526" y="66"/>
      <point x="579" y="107"/>
      <point x="605" y="175" type="curve" smooth="yes"/>
      <point x="621" y="218"/>
      <point x="620" y="262"/>
      <point x="620" y="306" type="curve" smooth="yes"/>
      <point x="620" y="483" type="line" smooth="yes"/>
      <point x="620" y="589"/>
      <point x="610" y="600"/>
      <point x="540" y="601" type="curve"/>
      <point x="533" y="604" type="line" smooth="yes"/>
      <point x="518" y="608"/>
      <point x="511" y="654"/>
      <point x="535" y="654" type="curve" smooth="yes"/>
      <point x="585" y="655"/>
      <point x="718" y="655"/>
      <point x="779" y="654" type="curve" smooth="yes"/>
      <point x="792" y="654"/>
      <point x="798" y="640"/>
      <point x="798" y="629" type="curve" smooth="yes"/>
      <point x="798" y="622"/>
      <point x="795" y="606"/>
    </contour>
  </outline>
</glyph>
<glyph name="Yacute" format="1">
  <advance width="728"/>
  <unicode hex="00DD"/>
  <outline>
    <contour>
      <point x="502" y="886" type="curve" smooth="yes"/>
      <point x="501" y="883"/>
      <point x="359" y="713"/>
      <point x="359" y="713" type="curve" smooth="yes"/>
      <point x="348" y="701"/>
      <point x="308" y="704"/>
      <point x="316" y="732" type="curve" smooth="yes"/>
      <point x="364" y="893" type="line" smooth="yes"/>
      <point x="370" y="904"/>
      <point x="380" y="912"/>
      <point x="392" y="912" type="curve" smooth="yes"/>
      <point x="479" y="913" type="line" smooth="yes"/>
      <point x="496" y="913"/>
      <point x="508" y="904"/>
    </contour>
    <contour>
      <point x="716" y="601" type="curve" smooth="yes"/>
      <point x="645" y="598"/>
      <point x="623" y="547"/>
      <point x="592" y="495" type="curve" smooth="yes"/>
      <point x="447" y="254" type="line"/>
      <point x="448" y="206"/>
      <point x="447" y="134"/>
      <point x="447" y="106" type="curve" smooth="yes"/>
      <point x="447" y="65"/>
      <point x="471" y="58"/>
      <point x="506" y="57" type="curve" smooth="yes"/>
      <point x="517" y="56"/>
      <point x="527" y="60"/>
      <point x="537" y="54" type="curve" smooth="yes"/>
      <point x="549" y="47"/>
      <point x="547" y="34"/>
      <point x="547" y="23" type="curve" smooth="yes"/>
      <point x="547" y="13"/>
      <point x="542" y="-4"/>
      <point x="525" y="-4" type="curve" smooth="yes"/>
      <point x="405" y="-2"/>
      <point x="362" y="0"/>
      <point x="255" y="-3" type="curve" smooth="yes"/>
      <point x="247" y="-3"/>
      <point x="233" y="2"/>
      <point x="229" y="10" type="curve" smooth="yes"/>
      <point x="225" y="20"/>
      <point x="226" y="32"/>
      <point x="228" y="39" type="curve" smooth="yes"/>
      <point x="239" y="67"/>
      <point x="262" y="56"/>
      <point x="285" y="57" type="curve" smooth="yes"/>
      <point x="315" y="59"/>
      <point x="325" y="74"/>
      <point x="327" y="107" type="curve" smooth="yes"/>
      <point x="329" y="138"/>
      <point x="330" y="204"/>
      <point x="328" y="241" type="curve"/>
      <point x="149" y="517" type="line" smooth="yes"/>
      <point x="103" y="589"/>
      <point x="89" y="599"/>
      <point x="35" y="600" type="curve" smooth="yes"/>
      <point x="26" y="600"/>
      <point x="15" y="600"/>
      <point x="11" y="614" type="curve" smooth="yes"/>
      <point x="10" y="619"/>
      <point x="10" y="627"/>
      <point x="11" y="633" type="curve" smooth="yes"/>
      <point x="13" y="642"/>
      <point x="20" y="654"/>
      <point x="33" y="653" type="curve" smooth="yes"/>
      <point x="101" y="652"/>
      <point x="244" y="651"/>
      <point x="297" y="653" type="curve" smooth="yes"/>
      <point x="319" y="653"/>
      <point x="333" y="600"/>
      <point x="294" y="600" type="curve" smooth="yes"/>
      <point x="249" y="600"/>
      <point x="247" y="595"/>
      <point x="247" y="591" type="curve" smooth="yes"/>
      <point x="247" y="585"/>
      <point x="247" y="584"/>
      <point x="249" y="578" type="curve" smooth="yes"/>
      <point x="252" y="571"/>
      <point x="258" y="560"/>
      <point x="272" y="538" type="curve" smooth="yes"/>
      <point x="401" y="344" type="line" smooth="yes"/>
      <point x="403" y="340"/>
      <point x="410" y="345"/>
      <point x="413" y="350" type="curve" smooth="yes"/>
      <point x="519" y="526" type="line" smooth="yes"/>
      <point x="537" y="557"/>
      <point x="546" y="578"/>
      <point x="546" y="585" type="curve" smooth="yes"/>
      <point x="546" y="596"/>
      <point x="543" y="601"/>
      <point x="503" y="601" type="curve" smooth="yes"/>
      <point x="491" y="601" type="line"/>
      <point x="478" y="606"/>
      <point x="464" y="654"/>
      <point x="502" y="653" type="curve" smooth="yes"/>
      <point x="552" y="650"/>
      <point x="638" y="651"/>
      <point x="715" y="653" type="curve" smooth="yes"/>
      <point x="730" y="653"/>
      <point x="735" y="638"/>
      <point x="735" y="628" type="curve" smooth="yes"/>
      <point x="735" y="620"/>
      <point x="731" y="602"/>
    </contour>
  </outline>
</glyph>
<glyph name="ccedilla" format="1">
  <advance width="434"/>
  <unicode hex="00E7"/>
  <outline>
    <contour>
      <point x="394" y="88" type="curve" smooth="yes"/>
      <point x="357" y="31"/>
      <point x="309" y="-5"/>
      <point x="252" y="-16" type="curve"/>
      <point x="237" y="-44" type="line" smooth="yes"/>
      <point x="236" y="-44"/>
      <point x="233" y="-46"/>
      <point x="234" y="-46" type="curve" smooth="yes"/>
      <point x="272" y="-55"/>
      <point x="305" y="-89"/>
      <point x="305" y="-133" type="curve" smooth="yes"/>
      <point x="305" y="-189"/>
      <point x="255" y="-234"/>
      <point x="200" y="-234" type="curve" smooth="yes"/>
      <point x="186" y="-234"/>
      <point x="173" y="-233"/>
      <point x="155" y="-227" type="curve" smooth="yes"/>
      <point x="145" y="-223"/>
      <point x="140" y="-208"/>
      <point x="146" y="-196" type="curve" smooth="yes"/>
      <point x="148" y="-195"/>
      <point x="148" y="-193"/>
      <point x="150" y="-191" type="curve" smooth="yes"/>
      <point x="156" y="-178"/>
      <point x="171" y="-181"/>
      <point x="182" y="-183" type="curve" smooth="yes"/>
      <point x="185" y="-184"/>
      <point x="188" y="-184"/>
      <point x="190" y="-184" type="curve" smooth="yes"/>
      <point x="212" y="-184"/>
      <point x="232" y="-167"/>
      <point x="232" y="-149" type="curve" smooth="yes"/>
      <point x="232" y="-121"/>
      <point x="199" y="-112"/>
      <point x="164" y="-141" type="curve" smooth="yes"/>
      <point x="154" y="-150"/>
      <point x="125" y="-140"/>
      <point x="137" y="-120" type="curve" smooth="yes"/>
      <point x="196" y="-22" type="line" smooth="yes"/>
      <point x="198" y="-19"/>
      <point x="197" y="-18"/>
      <point x="195" y="-18" type="curve" smooth="yes"/>
      <point x="94" y="-10"/>
      <point x="25" y="79"/>
      <point x="25" y="191" type="curve" smooth="yes"/>
      <point x="25" y="326"/>
      <point x="136" y="432"/>
      <point x="271" y="432" type="curve" smooth="yes"/>
      <point x="331" y="432"/>
      <point x="397" y="408"/>
      <point x="397" y="360" type="curve" smooth="yes"/>
      <point x="397" y="334"/>
      <point x="377" y="314"/>
      <point x="352" y="314" type="curve" smooth="yes"/>
      <point x="327" y="314"/>
      <point x="310" y="326"/>
      <point x="284" y="350" type="curve" smooth="yes"/>
      <point x="264" y="370"/>
      <point x="252" y="375"/>
      <point x="236" y="375" type="curve" smooth="yes"/>
      <point x="181" y="375"/>
      <point x="125" y="304"/>
      <point x="125" y="212" type="curve" smooth="yes"/>
      <point x="125" y="116"/>
      <point x="179" y="54"/>
      <point x="248" y="54" type="curve" smooth="yes"/>
      <point x="293" y="54"/>
      <point x="328" y="77"/>
      <point x="353" y="114" type="curve" smooth="yes"/>
      <point x="356" y="119"/>
      <point x="367" y="134"/>
      <point x="383" y="130" type="curve" smooth="yes"/>
      <point x="388" y="127"/>
      <point x="397" y="117"/>
      <point x="399" y="111" type="curve" smooth="yes"/>
      <point x="402" y="102"/>
      <point x="396" y="91"/>
    </contour>
  </outline>
</glyph>
<glyph name="egrave" format="1">
  <advance width="427"/>
  <unicode hex="00E8"/>
  <outline>
    <contour>
      <point x="253" y="468" type="curve" smooth="yes"/>
      <point x="222" y="509"/>
      <point x="165" y="576"/>
      <point x="123" y="621" type="curve" smooth="yes"/>
      <point x="106" y="640"/>
      <point x="132" y="657"/>
      <point x="145" y="657" type="curve" smooth="yes"/>
      <point x="219" y="658" type="line" smooth="yes"/>
      <point x="230" y="658"/>
      <point x="241" y="657"/>
      <point x="247" y="644" type="curve" smooth="yes"/>
      <point x="263" y="600"/>
      <point x="285" y="526"/>
      <point x="296" y="483" type="curve"/>
      <point x="296" y="455"/>
      <point x="264" y="459"/>
    </contour>
    <contour>
      <point x="386" y="256" type="curve" smooth="yes"/>
      <point x="311" y="253"/>
      <point x="194" y="255"/>
      <point x="131" y="256" type="curve" smooth="yes"/>
      <point x="117" y="256"/>
      <point x="118" y="237"/>
      <point x="118" y="228" type="curve" smooth="yes"/>
      <point x="118" y="133"/>
      <point x="176" y="67"/>
      <point x="251" y="67" type="curve" smooth="yes"/>
      <point x="294" y="67"/>
      <point x="327" y="82"/>
      <point x="364" y="125" type="curve" smooth="yes"/>
      <point x="369" y="131"/>
      <point x="380" y="135"/>
      <point x="388" y="133" type="curve" smooth="yes"/>
      <point x="402" y="130"/>
      <point x="412" y="111"/>
      <point x="404" y="97" type="curve" smooth="yes"/>
      <point x="355" y="41"/>
      <point x="294" y="-15"/>
      <point x="212" y="-15" type="curve" smooth="yes"/>
      <point x="102" y="-15"/>
      <point x="21" y="84"/>
      <point x="21" y="204" type="curve" smooth="yes"/>
      <point x="21" y="333"/>
      <point x="110" y="432"/>
      <point x="232" y="432" type="curve" smooth="yes"/>
      <point x="303" y="432"/>
      <point x="351" y="404"/>
      <point x="381" y="342" type="curve" smooth="yes"/>
      <point x="389" y="325"/>
      <point x="396" y="310"/>
      <point x="408" y="295" type="curve"/>
      <point x="413" y="279"/>
      <point x="412" y="257"/>
    </contour>
    <contour>
      <point x="210" y="382" type="curve" smooth="yes"/>
      <point x="177" y="382"/>
      <point x="148" y="360"/>
      <point x="130" y="311" type="curve" smooth="yes"/>
      <point x="128" y="306"/>
      <point x="140" y="307"/>
      <point x="142" y="307" type="curve" smooth="yes"/>
      <point x="277" y="307" type="line" smooth="yes"/>
      <point x="281" y="307"/>
      <point x="290" y="304"/>
      <point x="289" y="308" type="curve" smooth="yes"/>
      <point x="275" y="358"/>
      <point x="246" y="382"/>
    </contour>
  </outline>
</glyph>
<glyph name="icircumflex" format="1">
  <advance width="273"/>
  <unicode hex="00EE"/>
  <outline>
    <contour>
      <point x="277" y="507" type="curve" smooth="yes"/>
      <point x="269" y="505"/>
      <point x="256" y="505"/>
      <point x="249" y="511" type="curve" smooth="yes"/>
      <point x="141" y="602" type="line"/>
      <point x="40" y="511" type="line" smooth="yes"/>
      <point x="25" y="497"/>
      <point x="-10" y="511"/>
      <point x="1" y="529" type="curve" smooth="yes"/>
      <point x="89" y="674" type="line" smooth="yes"/>
      <point x="94" y="681"/>
      <point x="101" y="685"/>
      <point x="108" y="688" type="curve" smooth="yes"/>
      <point x="116" y="689"/>
      <point x="160" y="690"/>
      <point x="174" y="689" type="curve" smooth="yes"/>
      <point x="186" y="688"/>
      <point x="191" y="686"/>
      <point x="198" y="675" type="curve" smooth="yes"/>
      <point x="285" y="533" type="line" smooth="yes"/>
      <point x="289" y="524"/>
      <point x="292" y="511"/>
    </contour>
    <contour>
      <point x="255" y="15" type="curve" smooth="yes"/>
      <point x="256" y="15" type="line"/>
      <point x="256" y="0"/>
      <point x="244" y="-4"/>
      <point x="231" y="-3" type="curve" smooth="yes"/>
      <point x="184" y="0"/>
      <point x="87" y="-2"/>
      <point x="38" y="-3" type="curve" smooth="yes"/>
      <point x="28" y="-3"/>
      <point x="20" y="11"/>
      <point x="19" y="22" type="curve" smooth="yes"/>
      <point x="18" y="33"/>
      <point x="22" y="49"/>
      <point x="36" y="50" type="curve" smooth="yes"/>
      <point x="72" y="53"/>
      <point x="84" y="56"/>
      <point x="90" y="65" type="curve" smooth="yes"/>
      <point x="93" y="70"/>
      <point x="94" y="76"/>
      <point x="94" y="87" type="curve" smooth="yes"/>
      <point x="95" y="98"/>
      <point x="94" y="113"/>
      <point x="94" y="131" type="curve" smooth="yes"/>
      <point x="94" y="305" type="line" smooth="yes"/>
      <point x="94" y="330"/>
      <point x="94" y="339"/>
      <point x="92" y="343" type="curve" smooth="yes"/>
      <point x="90" y="346"/>
      <point x="80" y="347"/>
      <point x="77" y="348" type="curve" smooth="yes"/>
      <point x="62" y="351"/>
      <point x="51" y="354"/>
      <point x="37" y="359" type="curve" smooth="yes"/>
      <point x="19" y="365"/>
      <point x="25" y="395"/>
      <point x="35" y="402" type="curve" smooth="yes"/>
      <point x="69" y="415"/>
      <point x="114" y="431"/>
      <point x="153" y="443" type="curve" smooth="yes"/>
      <point x="187" y="454"/>
      <point x="191" y="428"/>
      <point x="191" y="410" type="curve" smooth="yes"/>
      <point x="191" y="131" type="line" smooth="yes"/>
      <point x="191" y="111"/>
      <point x="191" y="95"/>
      <point x="192" y="81" type="curve" smooth="yes"/>
      <point x="194" y="53"/>
      <point x="196" y="53"/>
      <point x="228" y="53" type="curve" smooth="yes"/>
      <point x="243" y="54"/>
      <point x="254" y="48"/>
      <point x="256" y="33" type="curve" smooth="yes"/>
      <point x="256" y="30"/>
      <point x="255" y="18"/>
    </contour>
  </outline>
</glyph>
<glyph name="ntilde" format="1">
  <advance width="519"/>
  <unicode hex="00F1"/>
  <outline>
    <contour>
      <point x="317" y="489" type="curve" smooth="yes"/>
      <point x="288" y="489"/>
      <point x="254" y="503"/>
      <point x="217" y="529" type="curve" smooth="yes"/>
      <point x="180" y="554"/>
      <point x="174" y="555"/>
      <point x="165" y="555" type="curve" smooth="yes"/>
      <point x="154" y="555"/>
      <point x="147" y="552"/>
      <point x="139" y="518" type="curve" smooth="yes"/>
      <point x="139" y="512"/>
      <point x="136" y="506"/>
      <point x="136" y="499" type="curve" smooth="yes"/>
      <point x="130" y="487"/>
      <point x="93" y="474"/>
      <point x="89" y="502" type="curve"/>
      <point x="93" y="587"/>
      <point x="127" y="643"/>
      <point x="195" y="643" type="curve" smooth="yes"/>
      <point x="228" y="643"/>
      <point x="252" y="633"/>
      <point x="297" y="603" type="curve" smooth="yes"/>
      <point x="327" y="582"/>
      <point x="340" y="578"/>
      <point x="349" y="578" type="curve" smooth="yes"/>
      <point x="385" y="578"/>
      <point x="357" y="646"/>
      <point x="400" y="648" type="curve" smooth="yes"/>
      <point x="406" y="648"/>
      <point x="421" y="647"/>
      <point x="422" y="634" type="curve" smooth="yes"/>
      <point x="424" y="627"/>
      <point x="424" y="622"/>
      <point x="424" y="619" type="curve" smooth="yes"/>
      <point x="424" y="547"/>
      <point x="382" y="489"/>
    </contour>
    <contour>
      <point x="499" y="0" type="curve" smooth="yes"/>
      <point x="495" y="-2"/>
      <point x="489" y="-2"/>
      <point x="484" y="-2" type="curve" smooth="yes"/>
      <point x="436" y="-3"/>
      <point x="350" y="-1"/>
      <point x="299" y="-2" type="curve" smooth="yes"/>
      <point x="279" y="-3"/>
      <point x="275" y="2"/>
      <point x="274" y="19" type="curve" smooth="yes"/>
      <point x="274" y="28"/>
      <point x="277" y="50"/>
      <point x="291" y="50" type="curve" smooth="yes"/>
      <point x="297" y="50" type="line" smooth="yes"/>
      <point x="336" y="53"/>
      <point x="343" y="61"/>
      <point x="347" y="94" type="curve" smooth="yes"/>
      <point x="353" y="149"/>
      <point x="353" y="205"/>
      <point x="353" y="261" type="curve" smooth="yes"/>
      <point x="353" y="333"/>
      <point x="330" y="357"/>
      <point x="292" y="357" type="curve" smooth="yes"/>
      <point x="269" y="357"/>
      <point x="224" y="336"/>
      <point x="182" y="306" type="curve"/>
      <point x="182" y="95" type="line" smooth="yes"/>
      <point x="182" y="52"/>
      <point x="187" y="50"/>
      <point x="231" y="50" type="curve" smooth="yes"/>
      <point x="239" y="50"/>
      <point x="247" y="44"/>
      <point x="249" y="32" type="curve" smooth="yes"/>
      <point x="249" y="24"/>
      <point x="249" y="12"/>
      <point x="246" y="6" type="curve" smooth="yes"/>
      <point x="243" y="-2"/>
      <point x="236" y="-2"/>
      <point x="226" y="-3" type="curve" smooth="yes"/>
      <point x="163" y="-1"/>
      <point x="99" y="-5"/>
      <point x="35" y="-2" type="curve" smooth="yes"/>
      <point x="25" y="-1"/>
      <point x="21" y="-1"/>
      <point x="18" y="6" type="curve" smooth="yes"/>
      <point x="16" y="11"/>
      <point x="15" y="33"/>
      <point x="17" y="38" type="curve" smooth="yes"/>
      <point x="21" y="44"/>
      <point x="27" y="48"/>
      <point x="34" y="48" type="curve" smooth="yes"/>
      <point x="39" y="48" type="line" smooth="yes"/>
      <point x="74" y="48"/>
      <point x="85" y="51"/>
      <point x="85" y="137" type="curve" smooth="yes"/>
      <point x="85" y="268" type="line" smooth="yes"/>
      <point x="85" y="325"/>
      <point x="83" y="338"/>
      <point x="82" y="341" type="curve" smooth="yes"/>
      <point x="80" y="344"/>
      <point x="79" y="345"/>
      <point x="51" y="350" type="curve" smooth="yes"/>
      <point x="31" y="354" type="line" smooth="yes"/>
      <point x="9" y="359"/>
      <point x="19" y="395"/>
      <point x="30" y="400" type="curve" smooth="yes"/>
      <point x="57" y="409"/>
      <point x="90" y="421"/>
      <point x="116" y="431" type="curve" smooth="yes"/>
      <point x="127" y="435"/>
      <point x="137" y="439"/>
      <point x="147" y="441" type="curve" smooth="yes"/>
      <point x="172" y="446"/>
      <point x="182" y="439"/>
      <point x="182" y="415" type="curve" smooth="yes"/>
      <point x="182" y="373" type="line" smooth="yes"/>
      <point x="182" y="364"/>
      <point x="183" y="363"/>
      <point x="189" y="367" type="curve" smooth="yes"/>
      <point x="229" y="394"/>
      <point x="283" y="429"/>
      <point x="332" y="429" type="curve" smooth="yes"/>
      <point x="441" y="429"/>
      <point x="451" y="313"/>
      <point x="451" y="247" type="curve" smooth="yes"/>
      <point x="451" y="189"/>
      <point x="443" y="132"/>
      <point x="443" y="74" type="curve" smooth="yes"/>
      <point x="443" y="53"/>
      <point x="446" y="50"/>
      <point x="479" y="50" type="curve" smooth="yes"/>
      <point x="488" y="53"/>
      <point x="499" y="51"/>
      <point x="506" y="43" type="curve" smooth="yes"/>
      <point x="511" y="34"/>
      <point x="514" y="7"/>
    </contour>
  </outline>
</glyph>
<glyph name="oacute" format="1">
  <advance width="500"/>
  <unicode hex="00F3"/>
  <outline>
    <contour>
      <point x="394" y="656" type="curve" smooth="yes"/>
      <point x="394" y="655" type="line" smooth="yes"/>
      <point x="393" y="652"/>
      <point x="252" y="483"/>
      <point x="252" y="483" type="curve" smooth="yes"/>
      <point x="240" y="472"/>
      <point x="201" y="475"/>
      <point x="209" y="502" type="curve" smooth="yes"/>
      <point x="257" y="662" type="line" smooth="yes"/>
      <point x="263" y="673"/>
      <point x="274" y="681"/>
      <point x="284" y="681" type="curve" smooth="yes"/>
      <point x="371" y="681" type="line" smooth="yes"/>
      <point x="384" y="681"/>
      <point x="398" y="675"/>
      <point x="395" y="661" type="curve" smooth="yes"/>
      <point x="395" y="659"/>
      <point x="394" y="657"/>
    </contour>
    <contour>
      <point x="253" y="-15" type="curve" smooth="yes"/>
      <point x="121" y="-15"/>
      <point x="20" y="82"/>
      <point x="20" y="211" type="curve" smooth="yes"/>
      <point x="20" y="340"/>
      <point x="119" y="437"/>
      <point x="250" y="437" type="curve" smooth="yes"/>
      <point x="382" y="437"/>
      <point x="484" y="339"/>
      <point x="483" y="210" type="curve" smooth="yes"/>
      <point x="482" y="84"/>
      <point x="382" y="-15"/>
    </contour>
    <contour>
      <point x="236" y="382" type="curve" smooth="yes"/>
      <point x="176" y="382"/>
      <point x="126" y="325"/>
      <point x="126" y="242" type="curve" smooth="yes"/>
      <point x="126" y="125"/>
      <point x="192" y="41"/>
      <point x="265" y="41" type="curve" smooth="yes"/>
      <point x="325" y="41"/>
      <point x="375" y="98"/>
      <point x="375" y="186" type="curve" smooth="yes"/>
      <point x="375" y="296"/>
      <point x="308" y="382"/>
    </contour>
  </outline>
</glyph>
<glyph name="otilde" format="1">
  <advance width="500"/>
  <unicode hex="00F5"/>
  <outline>
    <contour>
      <point x="318" y="470" type="curve" smooth="yes"/>
      <point x="289" y="470"/>
      <point x="256" y="483"/>
      <point x="218" y="508" type="curve" smooth="yes"/>
      <point x="182" y="532"/>
      <point x="176" y="534"/>
      <point x="167" y="534" type="curve" smooth="yes"/>
      <point x="157" y="534"/>
      <point x="149" y="531"/>
      <point x="142" y="500" type="curve" smooth="yes"/>
      <point x="141" y="494"/>
      <point x="139" y="488"/>
      <point x="138" y="482" type="curve" smooth="yes"/>
      <point x="132" y="470"/>
      <point x="96" y="458"/>
      <point x="92" y="484" type="curve"/>
      <point x="96" y="566"/>
      <point x="129" y="618"/>
      <point x="197" y="618" type="curve" smooth="yes"/>
      <point x="229" y="618"/>
      <point x="253" y="609"/>
      <point x="298" y="580" type="curve" smooth="yes"/>
      <point x="327" y="561"/>
      <point x="341" y="557"/>
      <point x="349" y="557" type="curve" smooth="yes"/>
      <point x="385" y="557"/>
      <point x="358" y="621"/>
      <point x="399" y="623" type="curve" smooth="yes"/>
      <point x="406" y="623"/>
      <point x="420" y="622"/>
      <point x="422" y="610" type="curve" smooth="yes"/>
      <point x="424" y="603"/>
      <point x="424" y="599"/>
      <point x="424" y="596" type="curve" smooth="yes"/>
      <point x="424" y="527"/>
      <point x="382" y="470"/>
    </contour>
    <contour>
      <point x="253" y="-15" type="curve" smooth="yes"/>
      <point x="121" y="-15"/>
      <point x="20" y="82"/>
      <point x="20" y="209" type="curve" smooth="yes"/>
      <point x="20" y="337"/>
      <point x="119" y="433"/>
      <point x="250" y="433" type="curve" smooth="yes"/>
      <point x="381" y="433"/>
      <point x="484" y="335"/>
      <point x="483" y="208" type="curve" smooth="yes"/>
      <point x="482" y="83"/>
      <point x="382" y="-15"/>
    </contour>
    <contour>
      <point x="236" y="378" type="curve" smooth="yes"/>
      <point x="176" y="378"/>
      <point x="126" y="322"/>
      <point x="126" y="239" type="curve" smooth="yes"/>
      <point x="126" y="124"/>
      <point x="192" y="41"/>
      <point x="265" y="41" type="curve" smooth="yes"/>
      <point x="325" y="41"/>
      <point x="375" y="97"/>
      <point x="375" y="184" type="curve" smooth="yes"/>
      <point x="375" y="294"/>
      <point x="308" y="378"/>
    </contour>
  </outline>
</glyph>
<glyph name="divide" format="1">
  <advance width="699"/>
  <unicode hex="00F7"/>
  <outline>
    <contour>
      <point x="350" y="491" type="curve" smooth="yes"/>
      <point x="321" y="491"/>
      <point x="297" y="515"/>
      <point x="297" y="545" type="curve" smooth="yes"/>
      <point x="298" y="573"/>
      <point x="324" y="592"/>
      <point x="350" y="592" type="curve" smooth="yes"/>
      <point x="378" y="592"/>
      <point x="402" y="570"/>
      <point x="402" y="542" type="curve" smooth="yes"/>
      <point x="402" y="514"/>
      <point x="378" y="491"/>
    </contour>
    <contour>
      <point x="601" y="297" type="curve" smooth="yes"/>
      <point x="104" y="297" type="line" smooth="yes"/>
      <point x="92" y="297"/>
      <point x="69" y="298"/>
      <point x="69" y="318" type="curve" smooth="yes"/>
      <point x="69" y="352" type="line" smooth="yes"/>
      <point x="69" y="377"/>
      <point x="85" y="380"/>
      <point x="103" y="380" type="curve" smooth="yes"/>
      <point x="604" y="380" type="line" smooth="yes"/>
      <point x="636" y="380"/>
      <point x="627" y="381"/>
      <point x="631" y="327" type="curve" smooth="yes"/>
      <point x="633" y="302"/>
      <point x="621" y="297"/>
    </contour>
    <contour>
      <point x="350" y="87" type="curve" smooth="yes"/>
      <point x="322" y="87"/>
      <point x="297" y="110"/>
      <point x="297" y="138" type="curve" smooth="yes"/>
      <point x="297" y="168"/>
      <point x="322" y="189"/>
      <point x="350" y="189" type="curve" smooth="yes"/>
      <point x="379" y="189"/>
      <point x="402" y="167"/>
      <point x="402" y="138" type="curve" smooth="yes"/>
      <point x="402" y="111"/>
      <point x="380" y="87"/>
    </contour>
  </outline>
</glyph>
<glyph name="yacute" format="1">
  <advance width="490"/>
  <unicode hex="00FD"/>
  <outline>
    <contour>
      <point x="374" y="666" type="curve" smooth="yes"/>
      <point x="373" y="665" type="line" smooth="yes"/>
      <point x="372" y="662"/>
      <point x="231" y="492"/>
      <point x="231" y="492" type="curve" smooth="yes"/>
      <point x="219" y="480"/>
      <point x="180" y="483"/>
      <point x="188" y="511" type="curve" smooth="yes"/>
      <point x="236" y="672" type="line" smooth="yes"/>
      <point x="242" y="683"/>
      <point x="252" y="691"/>
      <point x="264" y="691" type="curve" smooth="yes"/>
      <point x="351" y="691" type="line" smooth="yes"/>
      <point x="364" y="691"/>
      <point x="378" y="685"/>
      <point x="375" y="670" type="curve" smooth="yes"/>
      <point x="374" y="669"/>
      <point x="374" y="667"/>
    </contour>
    <contour>
      <point x="278" y="136" type="curve" smooth="yes"/>
      <point x="327" y="269" type="line" smooth="yes"/>
      <point x="334" y="287"/>
      <point x="350" y="326"/>
      <point x="350" y="345" type="curve" smooth="yes"/>
      <point x="350" y="362"/>
      <point x="347" y="369"/>
      <point x="301" y="369" type="curve"/>
      <point x="290" y="375"/>
      <point x="280" y="414"/>
      <point x="304" y="418" type="curve" smooth="yes"/>
      <point x="308" y="419"/>
      <point x="311" y="418"/>
      <point x="314" y="418" type="curve" smooth="yes"/>
      <point x="372" y="418"/>
      <point x="408" y="419"/>
      <point x="461" y="419" type="curve" smooth="yes"/>
      <point x="486" y="419"/>
      <point x="488" y="393"/>
      <point x="482" y="378" type="curve" smooth="yes"/>
      <point x="479" y="371"/>
      <point x="473" y="370"/>
      <point x="468" y="369" type="curve" smooth="yes"/>
      <point x="437" y="367"/>
      <point x="421" y="356"/>
      <point x="382" y="250" type="curve" smooth="yes"/>
      <point x="263" y="-74" type="line" smooth="yes"/>
      <point x="246" y="-120"/>
      <point x="233" y="-152"/>
      <point x="221" y="-178" type="curve" smooth="yes"/>
      <point x="210" y="-204"/>
      <point x="199" y="-222"/>
      <point x="185" y="-240" type="curve" smooth="yes"/>
      <point x="171" y="-256"/>
      <point x="147" y="-264"/>
      <point x="128" y="-264" type="curve" smooth="yes"/>
      <point x="98" y="-264"/>
      <point x="70" y="-236"/>
      <point x="70" y="-207" type="curve" smooth="yes"/>
      <point x="70" y="-177"/>
      <point x="97" y="-165"/>
      <point x="128" y="-156" type="curve" smooth="yes"/>
      <point x="201" y="-137"/>
      <point x="207" y="-67"/>
      <point x="218" y="-5" type="curve"/>
      <point x="99" y="284" type="line" smooth="yes"/>
      <point x="65" y="366"/>
      <point x="63" y="366"/>
      <point x="22" y="370" type="curve" smooth="yes"/>
      <point x="6" y="373"/>
      <point x="-4" y="420"/>
      <point x="31" y="419" type="curve" smooth="yes"/>
      <point x="33" y="419"/>
      <point x="41" y="419"/>
      <point x="43" y="419" type="curve" smooth="yes"/>
      <point x="92" y="419"/>
      <point x="179" y="419"/>
      <point x="208" y="419" type="curve" smooth="yes"/>
      <point x="244" y="420"/>
      <point x="234" y="373"/>
      <point x="217" y="369" type="curve" smooth="yes"/>
      <point x="209" y="369"/>
      <point x="196" y="369"/>
      <point x="187" y="366" type="curve" smooth="yes"/>
      <point x="169" y="361"/>
      <point x="183" y="336"/>
      <point x="188" y="326" type="curve" smooth="yes"/>
      <point x="218" y="259"/>
      <point x="240" y="196"/>
      <point x="267" y="128" type="curve" smooth="yes"/>
      <point x="270" y="121"/>
      <point x="274" y="125"/>
    </contour>
  </outline>
</glyph>
<glyph name="thorn" format="1">
  <advance width="523"/>
  <unicode hex="00FE"/>
  <outline>
    <contour>
      <point x="189" y="388" type="curve" smooth="yes"/>
      <point x="247" y="427"/>
      <point x="283" y="446"/>
      <point x="322" y="446" type="curve" smooth="yes"/>
      <point x="414" y="446"/>
      <point x="489" y="345"/>
      <point x="489" y="238" type="curve" smooth="yes"/>
      <point x="489" y="107"/>
      <point x="382" y="-6"/>
      <point x="257" y="-6" type="curve" smooth="yes"/>
      <point x="235" y="-6"/>
      <point x="213" y="-3"/>
      <point x="188" y="5" type="curve" smooth="yes"/>
      <point x="184" y="6"/>
      <point x="181" y="3"/>
      <point x="181" y="-4" type="curve" smooth="yes"/>
      <point x="181" y="-104" type="line" smooth="yes"/>
      <point x="181" y="-191"/>
      <point x="190" y="-201"/>
      <point x="234" y="-198" type="curve" smooth="yes"/>
      <point x="267" y="-196"/>
      <point x="274" y="-196"/>
      <point x="276" y="-231" type="curve" smooth="yes"/>
      <point x="277" y="-248"/>
      <point x="267" y="-252"/>
      <point x="250" y="-252" type="curve" smooth="yes"/>
      <point x="196" y="-251"/>
      <point x="73" y="-250"/>
      <point x="26" y="-252" type="curve" smooth="yes"/>
      <point x="7" y="-253"/>
      <point x="1" y="-243"/>
      <point x="2" y="-226" type="curve" smooth="yes"/>
      <point x="3" y="-207"/>
      <point x="4" y="-198"/>
      <point x="28" y="-197" type="curve" smooth="yes"/>
      <point x="94" y="-197"/>
      <point x="81" y="-149"/>
      <point x="81" y="-104" type="curve" smooth="yes"/>
      <point x="81" y="534" type="line"/>
      <point x="81" y="560" type="line" smooth="yes"/>
      <point x="81" y="577"/>
      <point x="79" y="578"/>
      <point x="63" y="582" type="curve" smooth="yes"/>
      <point x="44" y="588"/>
      <point x="27" y="588"/>
      <point x="20" y="603" type="curve" smooth="yes"/>
      <point x="18" y="608"/>
      <point x="18" y="615"/>
      <point x="18" y="623" type="curve" smooth="yes"/>
      <point x="17" y="630"/>
      <point x="20" y="635"/>
      <point x="26" y="639" type="curve" smooth="yes"/>
      <point x="27" y="640"/>
      <point x="30" y="641"/>
      <point x="32" y="642" type="curve" smooth="yes"/>
      <point x="139" y="708" type="line" smooth="yes"/>
      <point x="162" y="722"/>
      <point x="181" y="716"/>
      <point x="181" y="683" type="curve" smooth="yes"/>
      <point x="181" y="405" type="line" smooth="yes"/>
      <point x="181" y="385"/>
      <point x="182" y="384"/>
    </contour>
    <contour>
      <point x="272" y="364" type="curve" smooth="yes"/>
      <point x="247" y="364"/>
      <point x="214" y="350"/>
      <point x="181" y="322" type="curve"/>
      <point x="181" y="104" type="line"/>
      <point x="214" y="74"/>
      <point x="254" y="57"/>
      <point x="285" y="57" type="curve" smooth="yes"/>
      <point x="341" y="57"/>
      <point x="389" y="113"/>
      <point x="389" y="200" type="curve" smooth="yes"/>
      <point x="389" y="297"/>
      <point x="334" y="364"/>
    </contour>
  </outline>
</glyph>
<glyph name="Scaron" format="1">
  <advance width="513"/>
  <unicode hex="0160"/>
  <outline>
    <contour>
      <point x="318" y="696" type="line" smooth="yes"/>
      <point x="311" y="689"/>
      <point x="306" y="688"/>
      <point x="296" y="688" type="curve" smooth="yes"/>
      <point x="222" y="688" type="line" smooth="yes"/>
      <point x="210" y="688"/>
      <point x="199" y="692"/>
      <point x="196" y="701" type="curve" smooth="yes"/>
      <point x="102" y="864" type="line" smooth="yes"/>
      <point x="96" y="875"/>
      <point x="104" y="882"/>
      <point x="108" y="884" type="curve" smooth="yes"/>
      <point x="112" y="886"/>
      <point x="117" y="886"/>
      <point x="121" y="886" type="curve" smooth="yes"/>
      <point x="128" y="886"/>
      <point x="139" y="884"/>
      <point x="144" y="878" type="curve" smooth="yes"/>
      <point x="267" y="782" type="line"/>
      <point x="371" y="879" type="line" smooth="yes"/>
      <point x="377" y="883"/>
      <point x="386" y="885"/>
      <point x="392" y="885" type="curve" smooth="yes"/>
      <point x="404" y="885"/>
      <point x="417" y="877"/>
      <point x="414" y="866" type="curve" smooth="yes"/>
    </contour>
    <contour>
      <point x="253" y="-19" type="curve" smooth="yes"/>
      <point x="217" y="-19"/>
      <point x="183" y="-8"/>
      <point x="149" y="2" type="curve" smooth="yes"/>
      <point x="128" y="8"/>
      <point x="126" y="8"/>
      <point x="123" y="8" type="curve" smooth="yes"/>
      <point x="121" y="8"/>
      <point x="120" y="7"/>
      <point x="115" y="0" type="curve"/>
      <point x="101" y="-7"/>
      <point x="75" y="-9"/>
      <point x="72" y="12" type="curve" smooth="yes"/>
      <point x="65" y="52"/>
      <point x="58" y="103"/>
      <point x="51" y="164" type="curve" smooth="yes"/>
      <point x="49" y="180"/>
      <point x="89" y="186"/>
      <point x="99" y="175" type="curve"/>
      <point x="119" y="115"/>
      <point x="135" y="90"/>
      <point x="169" y="67" type="curve" smooth="yes"/>
      <point x="196" y="48"/>
      <point x="212" y="41"/>
      <point x="244" y="41" type="curve" smooth="yes"/>
      <point x="314" y="41"/>
      <point x="354" y="84"/>
      <point x="354" y="140" type="curve" smooth="yes"/>
      <point x="354" y="216"/>
      <point x="267" y="262"/>
      <point x="211" y="299" type="curve" smooth="yes"/>
      <point x="137" y="348"/>
      <point x="54" y="408"/>
      <point x="54" y="505" type="curve" smooth="yes"/>
      <point x="54" y="600"/>
      <point x="131" y="667"/>
      <point x="239" y="667" type="curve" smooth="yes"/>
      <point x="274" y="667"/>
      <point x="292" y="660"/>
      <point x="324" y="650" type="curve" smooth="yes"/>
      <point x="345" y="643"/>
      <point x="352" y="642"/>
      <point x="356" y="642" type="curve" smooth="yes"/>
      <point x="358" y="642"/>
      <point x="360" y="643"/>
      <point x="361" y="645" type="curve" smooth="yes"/>
      <point x="367" y="649" type="line" smooth="yes"/>
      <point x="375" y="652"/>
      <point x="384" y="652"/>
      <point x="392" y="651" type="curve" smooth="yes"/>
      <point x="402" y="652"/>
      <point x="406" y="644"/>
      <point x="407" y="635" type="curve" smooth="yes"/>
      <point x="418" y="552"/>
      <point x="422" y="523"/>
      <point x="423" y="509" type="curve" smooth="yes"/>
      <point x="421" y="474"/>
      <point x="380" y="493"/>
      <point x="377" y="499" type="curve" smooth="yes"/>
      <point x="348" y="571"/>
      <point x="308" y="611"/>
      <point x="248" y="611" type="curve" smooth="yes"/>
      <point x="191" y="611"/>
      <point x="164" y="579"/>
      <point x="164" y="534" type="curve" smooth="yes"/>
      <point x="164" y="473"/>
      <point x="243" y="424"/>
      <point x="289" y="393" type="curve" smooth="yes"/>
      <point x="369" y="340"/>
      <point x="468" y="277"/>
      <point x="468" y="169" type="curve" smooth="yes"/>
      <point x="468" y="60"/>
      <point x="379" y="-19"/>
    </contour>
  </outline>
</glyph>
<glyph name="scaron" format="1">
  <advance width="324"/>
  <unicode hex="0161"/>
  <outline>
    <contour>
      <point x="223" y="511" type="line" smooth="yes"/>
      <point x="217" y="504"/>
      <point x="200" y="502"/>
      <point x="191" y="502" type="curve" smooth="yes"/>
      <point x="135" y="502" type="line" smooth="yes"/>
      <point x="123" y="502"/>
      <point x="105" y="507"/>
      <point x="101" y="516" type="curve" smooth="yes"/>
      <point x="8" y="678" type="line" smooth="yes"/>
      <point x="2" y="695"/>
      <point x="15" y="699"/>
      <point x="27" y="699" type="curve" smooth="yes"/>
      <point x="34" y="699"/>
      <point x="45" y="697"/>
      <point x="50" y="691" type="curve" smooth="yes"/>
      <point x="172" y="596" type="line"/>
      <point x="275" y="692" type="line" smooth="yes"/>
      <point x="281" y="696"/>
      <point x="290" y="698"/>
      <point x="296" y="698" type="curve" smooth="yes"/>
      <point x="307" y="698"/>
      <point x="321" y="690"/>
      <point x="317" y="679" type="curve" smooth="yes"/>
    </contour>
    <contour>
      <point x="157" y="-10" type="curve" smooth="yes"/>
      <point x="137" y="-10"/>
      <point x="115" y="-7"/>
      <point x="96" y="1" type="curve" smooth="yes"/>
      <point x="94" y="2"/>
      <point x="92" y="3"/>
      <point x="90" y="3" type="curve" smooth="yes"/>
      <point x="89" y="2"/>
      <point x="88" y="0"/>
      <point x="86" y="-7" type="curve"/>
      <point x="77" y="-10"/>
      <point x="69" y="-14"/>
      <point x="60" y="-12" type="curve" smooth="yes"/>
      <point x="52" y="-10"/>
      <point x="43" y="-6"/>
      <point x="42" y="7" type="curve" smooth="yes"/>
      <point x="38" y="46"/>
      <point x="35" y="84"/>
      <point x="33" y="117" type="curve" smooth="yes"/>
      <point x="32" y="131"/>
      <point x="50" y="137"/>
      <point x="66" y="135" type="curve" smooth="yes"/>
      <point x="77" y="131"/>
      <point x="79" y="123"/>
      <point x="80" y="118" type="curve" smooth="yes"/>
      <point x="93" y="62"/>
      <point x="121" y="40"/>
      <point x="154" y="40" type="curve" smooth="yes"/>
      <point x="183" y="40"/>
      <point x="204" y="63"/>
      <point x="204" y="92" type="curve" smooth="yes"/>
      <point x="204" y="124"/>
      <point x="175" y="147"/>
      <point x="151" y="164" type="curve" smooth="yes"/>
      <point x="99" y="202"/>
      <point x="29" y="237"/>
      <point x="29" y="312" type="curve" smooth="yes"/>
      <point x="29" y="388"/>
      <point x="92" y="438"/>
      <point x="172" y="438" type="curve" smooth="yes"/>
      <point x="199" y="438"/>
      <point x="228" y="431"/>
      <point x="263" y="417" type="curve"/>
      <point x="265" y="385"/>
      <point x="266" y="336"/>
      <point x="264" y="311" type="curve" smooth="yes"/>
      <point x="264" y="304"/>
      <point x="251" y="297"/>
      <point x="241" y="297" type="curve" smooth="yes"/>
      <point x="232" y="297"/>
      <point x="220" y="301"/>
      <point x="218" y="310" type="curve" smooth="yes"/>
      <point x="209" y="360"/>
      <point x="184" y="382"/>
      <point x="156" y="382" type="curve" smooth="yes"/>
      <point x="131" y="382"/>
      <point x="114" y="365"/>
      <point x="114" y="342" type="curve" smooth="yes"/>
      <point x="114" y="303"/>
      <point x="186" y="266"/>
      <point x="214" y="246" type="curve" smooth="yes"/>
      <point x="256" y="218"/>
      <point x="296" y="179"/>
      <point x="296" y="122" type="curve" smooth="yes"/>
      <point x="296" y="49"/>
      <point x="231" y="-10"/>
    </contour>
  </outline>
</glyph>
<glyph name="florin" format="1">
  <advance width="523"/>
  <unicode hex="0192"/>
  <outline>
    <contour>
      <point x="443" y="679" type="line"/>
      <point x="442" y="679" type="line" smooth="yes"/>
      <point x="424" y="678"/>
      <point x="412" y="673"/>
      <point x="397" y="589" type="curve" smooth="yes"/>
      <point x="394" y="575"/>
      <point x="382" y="515"/>
      <point x="377" y="480" type="curve" smooth="yes"/>
      <point x="377" y="478"/>
      <point x="376" y="475"/>
      <point x="376" y="473" type="curve" smooth="yes"/>
      <point x="376" y="472"/>
      <point x="374" y="472"/>
      <point x="375" y="472" type="curve" smooth="yes"/>
      <point x="439" y="472" type="line" smooth="yes"/>
      <point x="450" y="472"/>
      <point x="463" y="467"/>
      <point x="463" y="452" type="curve" smooth="yes"/>
      <point x="456" y="423" type="line" smooth="yes"/>
      <point x="453" y="409"/>
      <point x="441" y="408"/>
      <point x="429" y="406" type="curve" smooth="yes"/>
      <point x="364" y="406" type="line" smooth="yes"/>
      <point x="363" y="406"/>
      <point x="363" y="405"/>
      <point x="362" y="404" type="curve" smooth="yes"/>
      <point x="351" y="341"/>
      <point x="346" y="321"/>
      <point x="323" y="225" type="curve" smooth="yes"/>
      <point x="306" y="156"/>
      <point x="288" y="90"/>
      <point x="271" y="28" type="curve" smooth="yes"/>
      <point x="227" y="-133"/>
      <point x="162" y="-231"/>
      <point x="71" y="-231" type="curve" smooth="yes"/>
      <point x="30" y="-231"/>
      <point x="-7" y="-203"/>
      <point x="-7" y="-161" type="curve" smooth="yes"/>
      <point x="-7" y="-129"/>
      <point x="16" y="-100"/>
      <point x="49" y="-100" type="curve" smooth="yes"/>
      <point x="74" y="-100"/>
      <point x="97" y="-119"/>
      <point x="97" y="-145" type="curve" smooth="yes"/>
      <point x="97" y="-153"/>
      <point x="93" y="-161"/>
      <point x="90" y="-167" type="curve"/>
      <point x="109" y="-160"/>
      <point x="132" y="-123"/>
      <point x="151" y="-28" type="curve" smooth="yes"/>
      <point x="195" y="190" type="line"/>
      <point x="244" y="390" type="line" smooth="yes"/>
      <point x="245" y="394"/>
      <point x="250" y="405"/>
      <point x="247" y="406" type="curve" smooth="yes"/>
      <point x="181" y="406" type="line" smooth="yes"/>
      <point x="168" y="408"/>
      <point x="159" y="418"/>
      <point x="163" y="428" type="curve" smooth="yes"/>
      <point x="170" y="458" type="line" smooth="yes"/>
      <point x="175" y="470"/>
      <point x="185" y="472"/>
      <point x="194" y="474" type="curve" smooth="yes"/>
      <point x="258" y="476"/>
      <point x="260" y="478"/>
      <point x="285" y="554" type="curve" smooth="yes"/>
      <point x="322" y="660"/>
      <point x="347" y="703"/>
      <point x="401" y="726" type="curve" smooth="yes"/>
      <point x="415" y="733"/>
      <point x="430" y="736"/>
      <point x="445" y="736" type="curve" smooth="yes"/>
      <point x="492" y="736"/>
      <point x="532" y="707"/>
      <point x="532" y="661" type="curve" smooth="yes"/>
      <point x="532" y="632"/>
      <point x="512" y="607"/>
      <point x="481" y="607" type="curve" smooth="yes"/>
      <point x="458" y="607"/>
      <point x="434" y="625"/>
      <point x="434" y="651" type="curve" smooth="yes"/>
      <point x="434" y="659"/>
      <point x="436" y="668"/>
      <point x="441" y="676" type="curve" smooth="yes"/>
    </contour>
  </outline>
</glyph>
<glyph name="caron" format="1">
  <advance width="349"/>
  <unicode hex="02C7"/>
  <outline>
    <contour>
      <point x="233" y="489" type="line" smooth="yes"/>
      <point x="226" y="483"/>
      <point x="222" y="481"/>
      <point x="212" y="481" type="curve" smooth="yes"/>
      <point x="143" y="481" type="line" smooth="yes"/>
      <point x="134" y="481"/>
      <point x="120" y="483"/>
      <point x="116" y="494" type="curve" smooth="yes"/>
      <point x="21" y="642" type="line" smooth="yes"/>
      <point x="15" y="652"/>
      <point x="24" y="659"/>
      <point x="28" y="661" type="curve" smooth="yes"/>
      <point x="31" y="663"/>
      <point x="36" y="663"/>
      <point x="40" y="663" type="curve" smooth="yes"/>
      <point x="47" y="663"/>
      <point x="57" y="661"/>
      <point x="62" y="656" type="curve" smooth="yes"/>
      <point x="185" y="568" type="line"/>
      <point x="288" y="656" type="line" smooth="yes"/>
      <point x="293" y="660"/>
      <point x="302" y="662"/>
      <point x="309" y="662" type="curve" smooth="yes"/>
      <point x="319" y="662"/>
      <point x="331" y="656"/>
      <point x="331" y="645" type="curve"/>
    </contour>
  </outline>
</glyph>
<glyph name="breve" format="1">
  <advance width="349"/>
  <unicode hex="02D8"/>
  <outline>
    <contour>
      <point x="175" y="481" type="curve" smooth="yes"/>
      <point x="91" y="481"/>
      <point x="28" y="538"/>
      <point x="20" y="622" type="curve" smooth="yes"/>
      <point x="20" y="644"/>
      <point x="59" y="638"/>
      <point x="65" y="627" type="curve" smooth="yes"/>
      <point x="85" y="591"/>
      <point x="115" y="571"/>
      <point x="176" y="571" type="curve" smooth="yes"/>
      <point x="238" y="571"/>
      <point x="272" y="595"/>
      <point x="284" y="627" type="curve" smooth="yes"/>
      <point x="289" y="634"/>
      <point x="300" y="636"/>
      <point x="308" y="636" type="curve" smooth="yes"/>
      <point x="319" y="636"/>
      <point x="331" y="631"/>
      <point x="330" y="621" type="curve" smooth="yes"/>
      <point x="322" y="538"/>
      <point x="259" y="481"/>
    </contour>
  </outline>
</glyph>
<glyph name="ring" format="1">
  <advance width="349"/>
  <unicode hex="02DA"/>
  <outline>
    <contour>
      <point x="173" y="474" type="curve" smooth="yes"/>
      <point x="113" y="474"/>
      <point x="65" y="520"/>
      <point x="65" y="577" type="curve" smooth="yes"/>
      <point x="65" y="634"/>
      <point x="113" y="680"/>
      <point x="173" y="680" type="curve" smooth="yes"/>
      <point x="231" y="680"/>
      <point x="279" y="634"/>
      <point x="279" y="577" type="curve" smooth="yes"/>
      <point x="279" y="520"/>
      <point x="231" y="474"/>
    </contour>
    <contour>
      <point x="173" y="620" type="curve" smooth="yes"/>
      <point x="148" y="620"/>
      <point x="127" y="601"/>
      <point x="127" y="577" type="curve" smooth="yes"/>
      <point x="127" y="553"/>
      <point x="148" y="534"/>
      <point x="173" y="534" type="curve" smooth="yes"/>
      <point x="196" y="534"/>
      <point x="217" y="553"/>
      <point x="217" y="577" type="curve" smooth="yes"/>
      <point x="217" y="601"/>
      <point x="196" y="620"/>
    </contour>
  </outline>
</glyph>
<glyph name="ogonek" format="1">
  <advance width="349"/>
  <unicode hex="02DB"/>
  <outline>
    <contour>
      <point x="194" y="-191" type="curve" smooth="yes"/>
      <point x="123" y="-191"/>
      <point x="68" y="-153"/>
      <point x="68" y="-90" type="curve" smooth="yes"/>
      <point x="68" y="-54"/>
      <point x="84" y="-16"/>
      <point x="115" y="13" type="curve"/>
      <point x="174" y="13" type="line"/>
      <point x="152" y="-27"/>
      <point x="151" y="-34"/>
      <point x="151" y="-48" type="curve" smooth="yes"/>
      <point x="151" y="-90"/>
      <point x="186" y="-123"/>
      <point x="237" y="-123" type="curve" smooth="yes"/>
      <point x="255" y="-123"/>
      <point x="270" y="-119"/>
      <point x="302" y="-109" type="curve"/>
      <point x="327" y="-146" type="line"/>
      <point x="257" y="-184"/>
      <point x="235" y="-191"/>
    </contour>
  </outline>
</glyph>
<glyph name="tilde" format="1">
  <advance width="349"/>
  <unicode hex="02DC"/>
  <outline>
    <contour>
      <point x="235" y="467" type="curve" smooth="yes"/>
      <point x="206" y="467"/>
      <point x="173" y="479"/>
      <point x="135" y="502" type="curve" smooth="yes"/>
      <point x="99" y="525"/>
      <point x="93" y="528"/>
      <point x="84" y="528" type="curve" smooth="yes"/>
      <point x="74" y="528"/>
      <point x="66" y="525"/>
      <point x="59" y="495" type="curve" smooth="yes"/>
      <point x="58" y="489"/>
      <point x="56" y="484"/>
      <point x="55" y="478" type="curve" smooth="yes"/>
      <point x="53" y="462"/>
      <point x="13" y="455"/>
      <point x="9" y="480" type="curve"/>
      <point x="13" y="557"/>
      <point x="46" y="608"/>
      <point x="114" y="608" type="curve" smooth="yes"/>
      <point x="146" y="608"/>
      <point x="170" y="598"/>
      <point x="215" y="571" type="curve" smooth="yes"/>
      <point x="244" y="553"/>
      <point x="258" y="549"/>
      <point x="266" y="549" type="curve" smooth="yes"/>
      <point x="302" y="549"/>
      <point x="275" y="610"/>
      <point x="316" y="612" type="curve" smooth="yes"/>
      <point x="323" y="612"/>
      <point x="337" y="611"/>
      <point x="339" y="599" type="curve" smooth="yes"/>
      <point x="341" y="593"/>
      <point x="341" y="589"/>
      <point x="341" y="586" type="curve" smooth="yes"/>
      <point x="341" y="521"/>
      <point x="299" y="467"/>
    </contour>
  </outline>
</glyph>
<glyph name="emdash" format="1">
  <advance width="855"/>
  <unicode hex="2014"/>
  <outline>
    <contour>
      <point x="766" y="211" type="curve" smooth="yes"/>
      <point x="762" y="205"/>
      <point x="754" y="201"/>
      <point x="742" y="201" type="curve" smooth="yes"/>
      <point x="585" y="199"/>
      <point x="290" y="200"/>
      <point x="107" y="201" type="curve" smooth="yes"/>
      <point x="96" y="201"/>
      <point x="81" y="204"/>
      <point x="81" y="218" type="curve" smooth="yes"/>
      <point x="82" y="226"/>
      <point x="82" y="238"/>
      <point x="82" y="246" type="curve" smooth="yes"/>
      <point x="83" y="253"/>
      <point x="87" y="263"/>
      <point x="110" y="263" type="curve" smooth="yes"/>
      <point x="266" y="262"/>
      <point x="582" y="262"/>
      <point x="743" y="263" type="curve" smooth="yes"/>
      <point x="758" y="260"/>
      <point x="762" y="259"/>
      <point x="765" y="253" type="curve" smooth="yes"/>
      <point x="769" y="244"/>
      <point x="767" y="224"/>
    </contour>
  </outline>
</glyph>
<glyph name="quoteleft" format="1">
  <advance width="272"/>
  <unicode hex="2018"/>
  <outline>
    <contour>
      <point x="145" y="452" type="curve" smooth="yes"/>
      <point x="97" y="452"/>
      <point x="66" y="496"/>
      <point x="66" y="545" type="curve" smooth="yes"/>
      <point x="66" y="610"/>
      <point x="114" y="667"/>
      <point x="183" y="692" type="curve" smooth="yes"/>
      <point x="204" y="700"/>
      <point x="224" y="669"/>
      <point x="198" y="650" type="curve" smooth="yes"/>
      <point x="154" y="625"/>
      <point x="134" y="595"/>
      <point x="134" y="570" type="curve" smooth="yes"/>
      <point x="134" y="567"/>
      <point x="140" y="568"/>
      <point x="144" y="569" type="curve" smooth="yes"/>
      <point x="147" y="570"/>
      <point x="150" y="570"/>
      <point x="154" y="570" type="curve" smooth="yes"/>
      <point x="186" y="570"/>
      <point x="208" y="544"/>
      <point x="208" y="513" type="curve" smooth="yes"/>
      <point x="208" y="478"/>
      <point x="180" y="452"/>
    </contour>
  </outline>
</glyph>
<glyph name="quotedblright" format="1">
  <advance width="501"/>
  <unicode hex="201D"/>
  <outline>
    <contour>
      <point x="141" y="579" type="curve" smooth="yes"/>
      <point x="133" y="579" type="line" smooth="yes"/>
      <point x="103" y="579"/>
      <point x="82" y="604"/>
      <point x="82" y="633" type="curve" smooth="yes"/>
      <point x="82" y="666"/>
      <point x="110" y="692"/>
      <point x="143" y="692" type="curve" smooth="yes"/>
      <point x="188" y="692"/>
      <point x="216" y="650"/>
      <point x="216" y="604" type="curve" smooth="yes"/>
      <point x="216" y="543"/>
      <point x="173" y="488"/>
      <point x="110" y="463" type="curve" smooth="yes"/>
      <point x="98" y="459"/>
      <point x="89" y="468"/>
      <point x="86" y="479" type="curve" smooth="yes"/>
      <point x="85" y="488"/>
      <point x="85" y="496"/>
      <point x="92" y="499" type="curve" smooth="yes"/>
      <point x="96" y="502" type="line" smooth="yes"/>
      <point x="119" y="516"/>
      <point x="150" y="538"/>
      <point x="152" y="579" type="curve" smooth="yes"/>
      <point x="152" y="584"/>
      <point x="145" y="580"/>
    </contour>
    <contour>
      <point x="356" y="576" type="curve" smooth="yes"/>
      <point x="348" y="576" type="line" smooth="yes"/>
      <point x="318" y="576"/>
      <point x="297" y="600"/>
      <point x="297" y="630" type="curve" smooth="yes"/>
      <point x="297" y="663"/>
      <point x="325" y="689"/>
      <point x="358" y="689" type="curve" smooth="yes"/>
      <point x="403" y="689"/>
      <point x="431" y="646"/>
      <point x="431" y="600" type="curve" smooth="yes"/>
      <point x="431" y="540"/>
      <point x="388" y="485"/>
      <point x="325" y="460" type="curve" smooth="yes"/>
      <point x="313" y="455"/>
      <point x="304" y="465"/>
      <point x="301" y="476" type="curve" smooth="yes"/>
      <point x="300" y="485"/>
      <point x="300" y="492"/>
      <point x="307" y="496" type="curve" smooth="yes"/>
      <point x="311" y="499" type="line" smooth="yes"/>
      <point x="333" y="512"/>
      <point x="365" y="534"/>
      <point x="367" y="576" type="curve" smooth="yes"/>
      <point x="367" y="580"/>
      <point x="360" y="577"/>
    </contour>
  </outline>
</glyph>
<glyph name="bullet" format="1">
  <advance width="371"/>
  <unicode hex="2022"/>
  <outline>
    <contour>
      <point x="186" y="215" type="curve" smooth="yes"/>
      <point x="121" y="215"/>
      <point x="70" y="265"/>
      <point x="70" y="328" type="curve" smooth="yes"/>
      <point x="70" y="390"/>
      <point x="121" y="441"/>
      <point x="186" y="441" type="curve" smooth="yes"/>
      <point x="251" y="441"/>
      <point x="302" y="390"/>
      <point x="302" y="328" type="curve" smooth="yes"/>
      <point x="302" y="265"/>
      <point x="251" y="215"/>
    </contour>
  </outline>
</glyph>
<glyph name="ellipsis" format="1">
  <advance width="1082"/>
  <unicode hex="2026"/>
  <outline>
    <contour>
      <point x="900" y="-17" type="curve" smooth="yes"/>
      <point x="861" y="-17"/>
      <point x="836" y="9"/>
      <point x="836" y="42" type="curve" smooth="yes"/>
      <point x="836" y="76"/>
      <point x="860" y="101"/>
      <point x="899" y="101" type="curve" smooth="yes"/>
      <point x="939" y="101"/>
      <point x="964" y="72"/>
      <point x="964" y="39" type="curve" smooth="yes"/>
      <point x="964" y="6"/>
      <point x="940" y="-17"/>
    </contour>
    <contour>
      <point x="548" y="-17" type="curve" smooth="yes"/>
      <point x="508" y="-17"/>
      <point x="482" y="5"/>
      <point x="482" y="38" type="curve" smooth="yes"/>
      <point x="482" y="73"/>
      <point x="507" y="100"/>
      <point x="547" y="100" type="curve" smooth="yes"/>
      <point x="587" y="100"/>
      <point x="613" y="71"/>
      <point x="613" y="38" type="curve" smooth="yes"/>
      <point x="613" y="5"/>
      <point x="587" y="-17"/>
    </contour>
    <contour>
      <point x="192" y="-17" type="curve" smooth="yes"/>
      <point x="152" y="-17"/>
      <point x="125" y="8"/>
      <point x="125" y="42" type="curve" smooth="yes"/>
      <point x="125" y="76"/>
      <point x="153" y="101"/>
      <point x="192" y="101" type="curve" smooth="yes"/>
      <point x="232" y="101"/>
      <point x="256" y="72"/>
      <point x="256" y="39" type="curve" smooth="yes"/>
      <point x="256" y="7"/>
      <point x="231" y="-17"/>
    </contour>
  </outline>
</glyph>
<glyph name="f_f" format="1">
  <advance width="627"/>
  <unicode hex="FB00"/>
  <outline>
    <contour>
      <point x="728" y="613" type="curve" smooth="yes"/>
      <point x="709" y="584"/>
      <point x="690" y="598"/>
      <point x="671" y="612" type="curve" smooth="yes"/>
      <point x="646" y="633"/>
      <point x="609" y="647"/>
      <point x="583" y="647" type="curve" smooth="yes"/>
      <point x="547" y="647"/>
      <point x="514" y="624"/>
      <point x="501" y="590" type="curve" smooth="yes"/>
      <point x="483" y="539"/>
      <point x="488" y="483"/>
      <point x="489" y="430" type="curve" smooth="yes"/>
      <point x="489" y="423"/>
      <point x="492" y="423"/>
      <point x="501" y="423" type="curve" smooth="yes"/>
      <point x="568" y="424" type="line" smooth="yes"/>
      <point x="581" y="424"/>
      <point x="586" y="423"/>
      <point x="593" y="412" type="curve" smooth="yes"/>
      <point x="597" y="404"/>
      <point x="601" y="370"/>
      <point x="602" y="359" type="curve" smooth="yes"/>
      <point x="602" y="345"/>
      <point x="590" y="342"/>
      <point x="577" y="342" type="curve" smooth="yes"/>
      <point x="565" y="342"/>
      <point x="521" y="343"/>
      <point x="498" y="344" type="curve"/>
      <point x="491" y="340"/>
      <point x="489" y="334"/>
      <point x="489" y="323" type="curve" smooth="yes"/>
      <point x="489" y="140" type="line" smooth="yes"/>
      <point x="489" y="62"/>
      <point x="493" y="52"/>
      <point x="548" y="52" type="curve" smooth="yes"/>
      <point x="554" y="53"/>
      <point x="578" y="51"/>
      <point x="588" y="51" type="curve" smooth="yes"/>
      <point x="596" y="51"/>
      <point x="605" y="39"/>
      <point x="604" y="30" type="curve" smooth="yes"/>
      <point x="604" y="28"/>
      <point x="604" y="17"/>
      <point x="604" y="15" type="curve" smooth="yes"/>
      <point x="606" y="-3"/>
      <point x="599" y="-5"/>
      <point x="586" y="-5" type="curve" smooth="yes"/>
      <point x="523" y="-3"/>
      <point x="407" y="-4"/>
      <point x="346" y="-5" type="curve" smooth="yes"/>
      <point x="331" y="-5"/>
      <point x="322" y="1"/>
      <point x="322" y="12" type="curve" smooth="yes"/>
      <point x="322" y="20"/>
      <point x="319" y="31"/>
      <point x="323" y="38" type="curve" smooth="yes"/>
      <point x="328" y="49"/>
      <point x="339" y="52"/>
      <point x="349" y="52" type="curve" smooth="yes"/>
      <point x="372" y="52"/>
      <point x="380" y="54"/>
      <point x="383" y="64" type="curve" smooth="yes"/>
      <point x="389" y="80"/>
      <point x="387" y="128"/>
      <point x="387" y="144" type="curve" smooth="yes"/>
      <point x="387" y="334" type="line" smooth="yes"/>
      <point x="386" y="340"/>
      <point x="383" y="344"/>
      <point x="378" y="344" type="curve" smooth="yes"/>
      <point x="324" y="346"/>
      <point x="268" y="344"/>
      <point x="216" y="343" type="curve" smooth="yes"/>
      <point x="210" y="343"/>
      <point x="206" y="338"/>
      <point x="204" y="332" type="curve" smooth="yes"/>
      <point x="204" y="254"/>
      <point x="202" y="182"/>
      <point x="204" y="102" type="curve" smooth="yes"/>
      <point x="205" y="91"/>
      <point x="204" y="77"/>
      <point x="208" y="67" type="curve" smooth="yes"/>
      <point x="216" y="48"/>
      <point x="232" y="51"/>
      <point x="249" y="51" type="curve" smooth="yes"/>
      <point x="256" y="51"/>
      <point x="270" y="51"/>
      <point x="280" y="49" type="curve" smooth="yes"/>
      <point x="285" y="47"/>
      <point x="291" y="46"/>
      <point x="293" y="41" type="curve" smooth="yes"/>
      <point x="298" y="31"/>
      <point x="296" y="12"/>
      <point x="294" y="5" type="curve" smooth="yes"/>
      <point x="290" y="-3"/>
      <point x="281" y="-4"/>
      <point x="273" y="-4" type="curve" smooth="yes"/>
      <point x="185" y="-2"/>
      <point x="103" y="-2"/>
      <point x="39" y="-4" type="curve" smooth="yes"/>
      <point x="34" y="-4"/>
      <point x="25" y="-2"/>
      <point x="20" y="5" type="curve" smooth="yes"/>
      <point x="15" y="14"/>
      <point x="14" y="46"/>
      <point x="28" y="49" type="curve" smooth="yes"/>
      <point x="35" y="49"/>
      <point x="40" y="53"/>
      <point x="47" y="52" type="curve" smooth="yes"/>
      <point x="96" y="52"/>
      <point x="100" y="56"/>
      <point x="100" y="103" type="curve" smooth="yes"/>
      <point x="100" y="329" type="line" smooth="yes"/>
      <point x="100" y="342"/>
      <point x="96" y="342"/>
      <point x="95" y="342" type="curve" smooth="yes"/>
      <point x="51" y="342" type="line"/>
      <point x="51" y="342"/>
      <point x="43" y="342"/>
      <point x="30" y="343" type="curve"/>
      <point x="25" y="348"/>
      <point x="22" y="352"/>
      <point x="21" y="357" type="curve" smooth="yes"/>
      <point x="19" y="363"/>
      <point x="17" y="379"/>
      <point x="23" y="388" type="curve" smooth="yes"/>
      <point x="28" y="393"/>
      <point x="37" y="396"/>
      <point x="41" y="397" type="curve" smooth="yes"/>
      <point x="65" y="402"/>
      <point x="81" y="405"/>
      <point x="100" y="417" type="curve"/>
      <point x="103" y="441"/>
      <point x="104" y="461"/>
      <point x="106" y="479" type="curve" smooth="yes"/>
      <point x="114" y="551"/>
      <point x="139" y="583"/>
      <point x="194" y="631" type="curve" smooth="yes"/>
      <point x="260" y="690"/>
      <point x="393" y="742"/>
      <point x="478" y="671" type="curve" smooth="yes"/>
      <point x="483" y="665"/>
      <point x="486" y="664"/>
      <point x="486" y="665" type="curve" smooth="yes"/>
      <point x="532" y="706"/>
      <point x="577" y="724"/>
      <point x="626" y="724" type="curve" smooth="yes"/>
      <point x="659" y="724"/>
      <point x="719" y="712"/>
      <point x="743" y="676" type="curve" smooth="yes"/>
      <point x="747" y="671"/>
      <point x="748" y="664"/>
      <point x="748" y="660" type="curve" smooth="yes"/>
      <point x="748" y="647"/>
      <point x="737" y="628"/>
    </contour>
    <contour>
      <point x="415" y="589" type="curve" smooth="yes"/>
      <point x="412" y="593"/>
      <point x="408" y="596"/>
      <point x="403" y="600" type="curve" smooth="yes"/>
      <point x="373" y="628"/>
      <point x="353" y="633"/>
      <point x="320" y="633" type="curve" smooth="yes"/>
      <point x="271" y="633"/>
      <point x="222" y="592"/>
      <point x="211" y="541" type="curve" smooth="yes"/>
      <point x="206" y="518"/>
      <point x="204" y="503"/>
      <point x="204" y="429" type="curve" smooth="yes"/>
      <point x="204" y="425"/>
      <point x="207" y="421"/>
      <point x="209" y="421" type="curve" smooth="yes"/>
      <point x="253" y="418"/>
      <point x="322" y="419"/>
      <point x="370" y="421" type="curve" smooth="yes"/>
      <point x="380" y="421"/>
      <point x="387" y="420"/>
      <point x="388" y="428" type="curve" smooth="yes"/>
      <point x="389" y="480"/>
      <point x="388" y="530"/>
      <point x="415" y="579" type="curve"/>
      <point x="415" y="579"/>
      <point x="417" y="586"/>
    </contour>
  </outline>
</glyph>
<glyph name="f_f_i" format="1">
  <advance width="880"/>
  <unicode hex="FB03"/>
  <outline>
    <contour>
      <point x="850" y="-4" type="curve"/>
      <point x="794" y="-2"/>
      <point x="710" y="-2"/>
      <point x="641" y="-4" type="curve" smooth="yes"/>
      <point x="629" y="-4"/>
      <point x="623" y="11"/>
      <point x="623" y="22" type="curve" smooth="yes"/>
      <point x="623" y="34"/>
      <point x="624" y="54"/>
      <point x="650" y="51" type="curve" smooth="yes"/>
      <point x="687" y="51"/>
      <point x="692" y="53"/>
      <point x="694" y="87" type="curve" smooth="yes"/>
      <point x="694" y="100"/>
      <point x="694" y="116"/>
      <point x="694" y="138" type="curve" smooth="yes"/>
      <point x="694" y="288" type="line" smooth="yes"/>
      <point x="694" y="328"/>
      <point x="688" y="351"/>
      <point x="649" y="352" type="curve" smooth="yes"/>
      <point x="619" y="352"/>
      <point x="552" y="355"/>
      <point x="513" y="353" type="curve" smooth="yes"/>
      <point x="509" y="352"/>
      <point x="504" y="347"/>
      <point x="503" y="343" type="curve" smooth="yes"/>
      <point x="502" y="138" type="line" smooth="yes"/>
      <point x="502" y="121"/>
      <point x="500" y="81"/>
      <point x="508" y="66" type="curve" smooth="yes"/>
      <point x="513" y="55"/>
      <point x="524" y="51"/>
      <point x="552" y="51" type="curve" smooth="yes"/>
      <point x="571" y="51" type="line" smooth="yes"/>
      <point x="597" y="51"/>
      <point x="597" y="35"/>
      <point x="597" y="22" type="curve" smooth="yes"/>
      <point x="597" y="11"/>
      <point x="590" y="-4"/>
      <point x="581" y="-4" type="curve" smooth="yes"/>
      <point x="486" y="-2"/>
      <point x="413" y="-3"/>
      <point x="345" y="-5" type="curve" smooth="yes"/>
      <point x="331" y="-5"/>
      <point x="326" y="10"/>
      <point x="326" y="20" type="curve" smooth="yes"/>
      <point x="326" y="29"/>
      <point x="330" y="44"/>
      <point x="343" y="49" type="curve"/>
      <point x="352" y="49" type="line" smooth="yes"/>
      <point x="398" y="49"/>
      <point x="397" y="51"/>
      <point x="397" y="136" type="curve" smooth="yes"/>
      <point x="397" y="331" type="line" smooth="yes"/>
      <point x="396" y="338"/>
      <point x="396" y="346"/>
      <point x="389" y="347" type="curve" smooth="yes"/>
      <point x="343" y="350"/>
      <point x="244" y="350"/>
      <point x="214" y="346" type="curve" smooth="yes"/>
      <point x="213" y="346"/>
      <point x="209" y="343"/>
      <point x="208" y="334" type="curve" smooth="yes"/>
      <point x="208" y="258"/>
      <point x="206" y="173"/>
      <point x="208" y="94" type="curve" smooth="yes"/>
      <point x="209" y="57"/>
      <point x="213" y="52"/>
      <point x="255" y="52" type="curve" smooth="yes"/>
      <point x="266" y="52"/>
      <point x="277" y="52"/>
      <point x="288" y="50" type="curve" smooth="yes"/>
      <point x="313" y="40"/>
      <point x="303" y="-6"/>
      <point x="284" y="-5" type="curve" smooth="yes"/>
      <point x="191" y="-1"/>
      <point x="106" y="-2"/>
      <point x="39" y="-5" type="curve" smooth="yes"/>
      <point x="15" y="-6"/>
      <point x="10" y="47"/>
      <point x="42" y="49" type="curve" smooth="yes"/>
      <point x="45" y="49"/>
      <point x="48" y="49"/>
      <point x="52" y="49" type="curve" smooth="yes"/>
      <point x="98" y="49"/>
      <point x="102" y="54"/>
      <point x="102" y="100" type="curve" smooth="yes"/>
      <point x="102" y="335" type="line" smooth="yes"/>
      <point x="102" y="338"/>
      <point x="97" y="342"/>
      <point x="96" y="342" type="curve" smooth="yes"/>
      <point x="53" y="342" type="line" smooth="yes"/>
      <point x="41" y="342"/>
      <point x="29" y="341"/>
      <point x="23" y="356" type="curve" smooth="yes"/>
      <point x="21" y="363"/>
      <point x="20" y="379"/>
      <point x="25" y="388" type="curve" smooth="yes"/>
      <point x="30" y="392"/>
      <point x="36" y="394"/>
      <point x="42" y="397" type="curve" smooth="yes"/>
      <point x="67" y="402"/>
      <point x="84" y="405"/>
      <point x="103" y="416" type="curve"/>
      <point x="111" y="519"/>
      <point x="111" y="554"/>
      <point x="197" y="631" type="curve" smooth="yes"/>
      <point x="263" y="690"/>
      <point x="403" y="741"/>
      <point x="488" y="672" type="curve" smooth="yes"/>
      <point x="501" y="657"/>
      <point x="512" y="663"/>
      <point x="515" y="665" type="curve" smooth="yes"/>
      <point x="585" y="715"/>
      <point x="701" y="751"/>
      <point x="776" y="688" type="curve" smooth="yes"/>
      <point x="788" y="679"/>
      <point x="796" y="662"/>
      <point x="796" y="649" type="curve" smooth="yes"/>
      <point x="796" y="628"/>
      <point x="753" y="595"/>
      <point x="733" y="595" type="curve" smooth="yes"/>
      <point x="700" y="595"/>
      <point x="690" y="649"/>
      <point x="619" y="649" type="curve" smooth="yes"/>
      <point x="570" y="649"/>
      <point x="520" y="607"/>
      <point x="508" y="557" type="curve" smooth="yes"/>
      <point x="503" y="535"/>
      <point x="502" y="515"/>
      <point x="502" y="442" type="curve" smooth="yes"/>
      <point x="502" y="435"/>
      <point x="506" y="428"/>
      <point x="509" y="427" type="curve" smooth="yes"/>
      <point x="539" y="424"/>
      <point x="611" y="425"/>
      <point x="680" y="428" type="curve" smooth="yes"/>
      <point x="709" y="429"/>
      <point x="721" y="429"/>
      <point x="764" y="444" type="curve" smooth="yes"/>
      <point x="783" y="450"/>
      <point x="796" y="424"/>
      <point x="796" y="410" type="curve" smooth="yes"/>
      <point x="796" y="96" type="line" smooth="yes"/>
      <point x="796" y="53"/>
      <point x="803" y="51"/>
      <point x="834" y="51" type="curve"/>
      <point x="880" y="59"/>
      <point x="863" y="0"/>
    </contour>
    <contour>
      <point x="423" y="590" type="curve" smooth="yes"/>
      <point x="420" y="594"/>
      <point x="417" y="597"/>
      <point x="413" y="600" type="curve" smooth="yes"/>
      <point x="383" y="627"/>
      <point x="357" y="632"/>
      <point x="324" y="632" type="curve" smooth="yes"/>
      <point x="275" y="632"/>
      <point x="226" y="591"/>
      <point x="214" y="541" type="curve" smooth="yes"/>
      <point x="209" y="518"/>
      <point x="208" y="507"/>
      <point x="208" y="433" type="curve" smooth="yes"/>
      <point x="208" y="430"/>
      <point x="207" y="421"/>
      <point x="212" y="421" type="curve" smooth="yes"/>
      <point x="257" y="418"/>
      <point x="330" y="418"/>
      <point x="393" y="423" type="curve" smooth="yes"/>
      <point x="403" y="423"/>
      <point x="399" y="456"/>
      <point x="399" y="462" type="curve" smooth="yes"/>
      <point x="401" y="510"/>
      <point x="407" y="546"/>
      <point x="427" y="582" type="curve"/>
      <point x="427" y="582"/>
      <point x="427" y="585"/>
    </contour>
  </outline>
</glyph>
<glyph name="five.lining" format="1">
  <advance width="489"/>
  <outline>
    <contour>
      <point x="164" y="408" type="curve" smooth="yes"/>
      <point x="183" y="414"/>
      <point x="200" y="416"/>
      <point x="224" y="416" type="curve" smooth="yes"/>
      <point x="341" y="416"/>
      <point x="429" y="324"/>
      <point x="429" y="207" type="curve" smooth="yes"/>
      <point x="429" y="82"/>
      <point x="332" y="-18"/>
      <point x="197" y="-18" type="curve" smooth="yes"/>
      <point x="124" y="-18"/>
      <point x="50" y="6"/>
      <point x="50" y="58" type="curve" smooth="yes"/>
      <point x="50" y="85"/>
      <point x="72" y="107"/>
      <point x="99" y="107" type="curve" smooth="yes"/>
      <point x="136" y="107"/>
      <point x="164" y="73"/>
      <point x="188" y="51" type="curve" smooth="yes"/>
      <point x="199" y="42"/>
      <point x="205" y="40"/>
      <point x="219" y="40" type="curve" smooth="yes"/>
      <point x="275" y="40"/>
      <point x="321" y="102"/>
      <point x="321" y="185" type="curve" smooth="yes"/>
      <point x="321" y="266"/>
      <point x="276" y="318"/>
      <point x="207" y="318" type="curve" smooth="yes"/>
      <point x="172" y="318"/>
      <point x="155" y="309"/>
      <point x="125" y="291" type="curve" smooth="yes"/>
      <point x="118" y="287"/>
      <point x="108" y="284"/>
      <point x="98" y="290" type="curve" smooth="yes"/>
      <point x="86" y="299"/>
      <point x="84" y="306"/>
      <point x="85" y="321" type="curve" smooth="yes"/>
      <point x="105" y="595" type="line" smooth="yes"/>
      <point x="107" y="621"/>
      <point x="141" y="628"/>
      <point x="160" y="627" type="curve" smooth="yes"/>
      <point x="298" y="625" type="line" smooth="yes"/>
      <point x="311" y="625"/>
      <point x="321" y="625"/>
      <point x="329" y="625" type="curve" smooth="yes"/>
      <point x="347" y="627"/>
      <point x="343" y="640"/>
      <point x="357" y="640" type="curve" smooth="yes"/>
      <point x="375" y="640" type="line" smooth="yes"/>
      <point x="389" y="640"/>
      <point x="392" y="626"/>
      <point x="390" y="610" type="curve" smooth="yes"/>
      <point x="382" y="554" type="line"/>
      <point x="374" y="535"/>
      <point x="376" y="531"/>
      <point x="348" y="528" type="curve" smooth="yes"/>
      <point x="173" y="531" type="line" smooth="yes"/>
      <point x="168" y="530"/>
      <point x="163" y="527"/>
      <point x="162" y="522" type="curve" smooth="yes"/>
      <point x="155" y="414" type="line" smooth="yes"/>
      <point x="155" y="410"/>
      <point x="158" y="406"/>
    </contour>
  </outline>
</glyph>
<glyph name="one.lining" format="1">
  <advance width="489"/>
  <outline>
    <contour>
      <point x="362" y="-4" type="curve" smooth="yes"/>
      <point x="304" y="0"/>
      <point x="208" y="-1"/>
      <point x="147" y="-3" type="curve" smooth="yes"/>
      <point x="141" y="-4"/>
      <point x="126" y="-4"/>
      <point x="119" y="10" type="curve" smooth="yes"/>
      <point x="118" y="17"/>
      <point x="117" y="25"/>
      <point x="118" y="33" type="curve" smooth="yes"/>
      <point x="121" y="49"/>
      <point x="125" y="57"/>
      <point x="151" y="57" type="curve" smooth="yes"/>
      <point x="161" y="57"/>
      <point x="167" y="58"/>
      <point x="181" y="58" type="curve" smooth="yes"/>
      <point x="202" y="59"/>
      <point x="205" y="79"/>
      <point x="205" y="100" type="curve" smooth="yes"/>
      <point x="206" y="492" type="line" smooth="yes"/>
      <point x="205" y="501"/>
      <point x="205" y="507"/>
      <point x="200" y="503" type="curve" smooth="yes"/>
      <point x="174" y="485"/>
      <point x="144" y="468"/>
      <point x="117" y="455" type="curve" smooth="yes"/>
      <point x="105" y="449"/>
      <point x="99" y="451"/>
      <point x="89" y="462" type="curve" smooth="yes"/>
      <point x="82" y="474" type="line" smooth="yes"/>
      <point x="82" y="481"/>
      <point x="84" y="488"/>
      <point x="91" y="494" type="curve" smooth="yes"/>
      <point x="124" y="517"/>
      <point x="149" y="541"/>
      <point x="187" y="576" type="curve" smooth="yes"/>
      <point x="214" y="601"/>
      <point x="222" y="610"/>
      <point x="231" y="620" type="curve" smooth="yes"/>
      <point x="235" y="627"/>
      <point x="246" y="637"/>
      <point x="259" y="640" type="curve" smooth="yes"/>
      <point x="274" y="640" type="line" smooth="yes"/>
      <point x="298" y="640"/>
      <point x="302" y="634"/>
      <point x="304" y="611" type="curve" smooth="yes"/>
      <point x="305" y="104" type="line"/>
      <point x="305" y="93" type="line" smooth="yes"/>
      <point x="305" y="71"/>
      <point x="311" y="59"/>
      <point x="332" y="58" type="curve" smooth="yes"/>
      <point x="345" y="58"/>
      <point x="361" y="57"/>
      <point x="369" y="58" type="curve" smooth="yes"/>
      <point x="388" y="58"/>
      <point x="389" y="42"/>
      <point x="391" y="28" type="curve" smooth="yes"/>
      <point x="391" y="27"/>
      <point x="391" y="25"/>
      <point x="391" y="22" type="curve" smooth="yes"/>
      <point x="391" y="5"/>
      <point x="380" y="-5"/>
    </contour>
  </outline>
</glyph>
<glyph name="seven.lining" format="1">
  <advance width="489"/>
  <outline>
    <contour>
      <point x="427" y="575" type="line"/>
      <point x="202" y="2" type="line" smooth="yes"/>
      <point x="195" y="-14"/>
      <point x="181" y="-18"/>
      <point x="168" y="-18" type="curve" smooth="yes"/>
      <point x="155" y="-18"/>
      <point x="143" y="-15"/>
      <point x="130" y="-13" type="curve" smooth="yes"/>
      <point x="109" y="-10"/>
      <point x="107" y="10"/>
      <point x="112" y="23" type="curve" smooth="yes"/>
      <point x="328" y="523" type="line" smooth="yes"/>
      <point x="329" y="524"/>
      <point x="326" y="528"/>
      <point x="319" y="528" type="curve" smooth="yes"/>
      <point x="226" y="524"/>
      <point x="168" y="526"/>
      <point x="133" y="526" type="curve" smooth="yes"/>
      <point x="113" y="526"/>
      <point x="102" y="527"/>
      <point x="96" y="526" type="curve" smooth="yes"/>
      <point x="91" y="526"/>
      <point x="90" y="525"/>
      <point x="88" y="524" type="curve" smooth="yes"/>
      <point x="77" y="515"/>
      <point x="89" y="473"/>
      <point x="52" y="473" type="curve" smooth="yes"/>
      <point x="37" y="473"/>
      <point x="27" y="483"/>
      <point x="28" y="495" type="curve" smooth="yes"/>
      <point x="33" y="583" type="line" smooth="yes"/>
      <point x="34" y="600"/>
      <point x="58" y="625"/>
      <point x="79" y="624" type="curve" smooth="yes"/>
      <point x="160" y="620"/>
      <point x="266" y="621"/>
      <point x="392" y="624" type="curve" smooth="yes"/>
      <point x="409" y="624"/>
      <point x="429" y="612"/>
      <point x="428" y="591" type="curve" smooth="yes"/>
    </contour>
  </outline>
</glyph>
<glyph name="six.lining" format="1">
  <advance width="489"/>
  <outline>
    <contour>
      <point x="180" y="367" type="curve" smooth="yes"/>
      <point x="209" y="385"/>
      <point x="242" y="386"/>
      <point x="268" y="386" type="curve" smooth="yes"/>
      <point x="373" y="386"/>
      <point x="447" y="298"/>
      <point x="447" y="193" type="curve" smooth="yes"/>
      <point x="447" y="79"/>
      <point x="365" y="-18"/>
      <point x="251" y="-18" type="curve" smooth="yes"/>
      <point x="120" y="-18"/>
      <point x="42" y="97"/>
      <point x="42" y="248" type="curve" smooth="yes"/>
      <point x="42" y="429"/>
      <point x="160" y="575"/>
      <point x="360" y="637" type="curve" smooth="yes"/>
      <point x="368" y="639"/>
      <point x="385" y="641"/>
      <point x="392" y="628" type="curve" smooth="yes"/>
      <point x="397" y="621" type="line" smooth="yes"/>
      <point x="404" y="608"/>
      <point x="394" y="594"/>
      <point x="383" y="589" type="curve" smooth="yes"/>
      <point x="263" y="537"/>
      <point x="203" y="474"/>
      <point x="176" y="377" type="curve" smooth="yes"/>
      <point x="175" y="370"/>
      <point x="176" y="365"/>
    </contour>
    <contour>
      <point x="254" y="329" type="curve" smooth="yes"/>
      <point x="227" y="329"/>
      <point x="203" y="316"/>
      <point x="161" y="284" type="curve" smooth="yes"/>
      <point x="148" y="275"/>
      <point x="150" y="242"/>
      <point x="150" y="228" type="curve" smooth="yes"/>
      <point x="150" y="97"/>
      <point x="190" y="33"/>
      <point x="253" y="33" type="curve" smooth="yes"/>
      <point x="306" y="33"/>
      <point x="339" y="81"/>
      <point x="339" y="183" type="curve" smooth="yes"/>
      <point x="339" y="281"/>
      <point x="305" y="329"/>
    </contour>
  </outline>
</glyph>
